/* XPM */
static char *apcv5_0t6lr[] = {
/* columns rows colors chars-per-pixel */
"64 64 243 2 ",
"   c None",
".  c #0D302A",
"X  c #292A28",
"o  c #2B2112",
"O  c #433B16",
"+  c #715936",
"@  c #5A753D",
"#  c #726837",
"$  c #504920",
"%  c #0E3778",
"&  c #233F73",
"*  c #3F605E",
"=  c #32556A",
"-  c #355A6C",
";  c #375966",
":  c #365D71",
">  c #395E74",
",  c #2D506B",
"<  c #3D6469",
"1  c #396275",
"2  c #3A6579",
"3  c #3A687C",
"4  c #2F6376",
"5  c #3F545E",
"6  c #48585C",
"7  c #5C544B",
"8  c #6B5743",
"9  c #695447",
"0  c #587645",
"q  c #537252",
"w  c #737050",
"e  c #4B5C65",
"r  c #456767",
"t  c #556B67",
"y  c #476C79",
"u  c #4A7579",
"i  c #577679",
"p  c #54726E",
"a  c #6C7572",
"s  c #8F5C2C",
"d  c #8D642E",
"f  c #986735",
"g  c #867533",
"h  c #8A7434",
"j  c #897936",
"k  c #8D7D38",
"l  c #877835",
"z  c #997939",
"x  c #8D6331",
"c  c #A56F38",
"v  c #91724D",
"b  c #AB7646",
"n  c #B27D4C",
"m  c #AE7E54",
"M  c #8C7F6F",
"N  c #5E8149",
"B  c #58835A",
"V  c #62864C",
"C  c #628A4E",
"Z  c #668B54",
"A  c #66965A",
"S  c #7A835C",
"D  c #588A6D",
"F  c #588778",
"G  c #679965",
"H  c #71896F",
"J  c #6CA369",
"K  c #75AD77",
"L  c #78B67D",
"P  c #6FAA6F",
"I  c #94833B",
"U  c #9C8B3E",
"Y  c #98863C",
"T  c #8E823C",
"R  c #A5873D",
"E  c #9E8E41",
"W  c #988947",
"Q  c #9A9352",
"!  c #928B51",
"~  c #A48C44",
"^  c #A39343",
"/  c #AA9444",
"(  c #AB9946",
")  c #AE9D49",
"_  c #A4964C",
"`  c #B29C49",
"'  c #B78656",
"]  c #A69852",
"[  c #AA8D58",
"{  c #B5A34A",
"}  c #BCAA4D",
"|  c #B9A54B",
" . c #B9AA56",
".. c #ACA45B",
"X. c #949165",
"o. c #B3906B",
"O. c #9DA262",
"+. c #A8AA68",
"@. c #BCAC64",
"#. c #BAB565",
"$. c #C3AD53",
"%. c #C5B353",
"&. c #CBBA56",
"*. c #CDBD59",
"=. c #C5B35A",
"-. c #D1BD58",
";. c #C4AC4E",
":. c #C79667",
">. c #CA9A6D",
",. c #C7B867",
"<. c #DAA878",
"1. c #CEB573",
"2. c #CF9A67",
"3. c #D3C35B",
"4. c #DBCA5E",
"5. c #D6C65C",
"6. c #CFC05B",
"7. c #D2C364",
"8. c #DDCC61",
"9. c #D8C969",
"0. c #D7CA7B",
"q. c #DDD279",
"w. c #D2C66E",
"e. c #E4D464",
"r. c #E7D86B",
"t. c #EADC75",
"y. c #E6DA78",
"u. c #E0CF61",
"i. c #ECE07E",
"p. c #023997",
"a. c #043688",
"s. c #013DAC",
"d. c #0E4691",
"f. c #3C6D82",
"g. c #3B7290",
"h. c #0A4AB4",
"j. c #3275AD",
"k. c #427385",
"l. c #457A8C",
"z. c #47798B",
"x. c #567988",
"c. c #4C7C90",
"v. c #637781",
"b. c #0146C7",
"n. c #054DD0",
"m. c #209D97",
"M. c #4B8292",
"N. c #4E8A9B",
"B. c #4B8699",
"V. c #528892",
"C. c #658588",
"Z. c #699090",
"A. c #77AB8D",
"S. c #5798A6",
"D. c #4988A1",
"F. c #7597AE",
"G. c #5CA7B3",
"H. c #5BA2AD",
"J. c #62AAB6",
"K. c #63B1BC",
"L. c #74ACB0",
"P. c #68BBC3",
"I. c #7FB8C3",
"U. c #24CBC8",
"Y. c #6DC5CC",
"T. c #71C6CC",
"R. c #75CDD3",
"E. c #7AD6DA",
"W. c #74D1CC",
"Q. c #7BDDE1",
"!. c #7FE4E7",
"~. c #939790",
"^. c #81B98B",
"/. c #8FAE94",
"(. c #B1A38B",
"). c #8CAFB2",
"_. c #AEB4B2",
"`. c #DAAC85",
"'. c #CCAB8D",
"]. c #E4B485",
"[. c #E7BC96",
"{. c #CCBAA7",
"}. c #E1BFA2",
"|. c #87C398",
" X c #90C9AE",
".X c #D6CE85",
"XX c #DBD388",
"oX c #D8D097",
"OX c #E6DD87",
"+X c #EBC59D",
"@X c #E8DA94",
"#X c #ECE48C",
"$X c #ECE285",
"%X c #ECE693",
"&X c #EEE99C",
"*X c #ECE697",
"=X c #F0EA9B",
"-X c #F2E88E",
";X c #D4C9AB",
":X c #F5CCAA",
">X c #F9D6B8",
",X c #F0CEAC",
"<X c #EFEBA3",
"1X c #EAE4A3",
"2X c #F0ECA5",
"3X c #F1EDAA",
"4X c #F0E7A1",
"5X c #F2EFB4",
"6X c #F3EFB8",
"7X c #F4F1B9",
"8X c #EDE8AF",
"9X c #9AB5C5",
"0X c #8BAFC4",
"qX c #ABBBC6",
"wX c #8CD2D7",
"eX c #A8CDD6",
"rX c #90DBE1",
"tX c #B9D5E6",
"yX c #85E9EB",
"uX c #95FDFB",
"iX c #90F7F6",
"pX c #B8FAFB",
"aX c #ACEFF1",
"sX c #93E6DB",
"dX c #FDDDC2",
"fX c #E9D4C8",
"gX c #FFE4CB",
"hX c #FAE6C5",
"jX c #F6F2C3",
"kX c #F7F4CA",
"lX c #FFE9D1",
"zX c #FAF7D6",
"xX c #EDE8C5",
"cX c #CDDCE4",
"vX c #D4EAEF",
"bX c #FBFAE3",
"nX c #FDFCEC",
"mX c #FFFFF6",
"MX c #FEFEF2",
"NX c #FFFFFA",
"BX c #F6FBFE",
"VX c #E2ECF3",
"CX c #CCDBD2",
/* pixels */
"                                                            I I I I I W W I I I I I I I                                         ",
"                                                    j g g U } 7.0.XXoX;X;XoXXX.XXX0.7.} U g g l l j                             ",
"                                                  Y (  .@.,.q.%X7XzXzXkXjX7X3X2X2X=X#Xy.,.@.@.@. .( Y                           ",
"                                                I ) 7.y.*X<X<X5XzXbXzXjX3X<X<X<X<X<X<X<X<X<X2X*Xy.7...Q W W                     ",
"                                            j E %.r.#X&X<X<X<X<X2XjXbXbX6X<X<X<X<X<X<X<X<X<X<X<X&X4X8X8X1X0._ j                 ",
"                                          U { 3.y.%X&X<X<X<X<X<X<X5XkXbXzXkX3X&X&X<X<X<X<X<X<X<X<X3XjXzXzXjXoX@.W               ",
"                                        g ( 9.$X&X2X<X<X<X<X<X<X<X2X5XkXbXbXkX7X7X6X5X2X<X<X<X<X2X6XkXbXMXnXzX1X,._             ",
"                                        T ] XX&X&X<X<X<X<X<X<X<X<X<X<X3XjXzXnXMXMXnXzXjX5X2X2X5XjXzXnXMXMXMXMXbX5X.X_ l         ",
"                                    j _ 1.XXy.t.t.i.&X<X<X<X<X<X<X<X<X<X2X5XkXbXMXNXMXnXbXbXbXbXnXnXMXNXMXNXNXnXzXoX] g         ",
"                                    j ) y.XX+.X.X.+.q.-X&X<X<X<X<X<X<X<X<X2X5X7XkXzXbXbXbXnXNXNXNXNXNXNXMXMXNXMXnXxX.X..W       ",
"                                    w W  .+.t : y H +.w.OX&X*X*X<X<X<X<X&X&X<X<X<X2X7XjXjXkXzXbXbXnXnXMXMXNXNXNXMXzX7XXX] l     ",
"                            - = - ; ; r r r ; x.9X9XC.H #.r.r.y.%X<X<X*Xy.y.%X<X<X<X2X2X2X*XOXOX&X6XkXzXnXMXNXnXzXkX5XXX] l     ",
"                            = k.F.0XqXqXqXqX9X).F.F.).).H S _  .9.#X&X@X7.-.q.$X&X<X<X2X2XOX7.7.OX2X5X3X4X3XkXzXkXjX5XXX] j     ",
"                            = k.F.eXvXBXNXBXcX0Xx.c.eXeXF.a w U *.r.$Xq. .{ 3.r.$X%X%XOX.X1. .=.q.%X%XOX8.9.1XjXjX6X&X0._ j     ",
"                                ; x.0XtXVXcXL.N.B.S.K.wXtXeXX.U &.e.e.&.^ ( *.e.e.e.e.&.^ Y ) %.8.e.e.5.} =.OX4X<X%Xy.3.^ j     ",
"                                w w i x.x.V.G.G.S.B.N.L.tXCXX.Y { } ( ( %.5.e.e.r.5.{ ^ / | -.u.e.4.&.{ U _ 7.t.r.r.r.3.( j     ",
"                              U { Q r > C.).eXtXeXeX9X)._.(.] ~ U U U ( %.-.%.) j + O O $ + # T } %.) U k E *.e.e.4.%.{ E       ",
"                            Y { 5.,.H C.9XtXcXcXcXcXtX_.! z R / Y Y ) { ) R g $ . . X X X o o O k ( Y j j ^ *.e.e.&.^ l         ",
"                        j ^ %.8.e.e.9.+.a y y y y y y t v f f z / { { ) E # o . m.U.eXfX}.o.v s h I     j ^ 3.4.%.) Y j         ",
"                      Y { 7.y.#X#X$Xr.5.+.O.O.O.O.! w v o.<.>.:.~ R `  .>.'.(.L.U.U.P._.fX+X' s     l I ^ { %.$.) I I           ",
"                  I ^  .9.$X&X2X2X&XOXy.t.t.t.t.r.-.c b <.:X>X[.b f R { 1.+XhXCXW.S.4 p {.[.b s     Y ^ ) ) ) ~ I               ",
"                I ( *.y.%X<X<X<X<X<X<X<X<X<X<X%Xt.-.R c :.].>X}.m x h Y ) $.<.].+X(.6 6 o.<.n f s f / ( I j k k                 ",
"            g U } 9.OX&X<X<X<X<X4X<X<X<X<X<X<X<X&XOX7.;.b n <.'.a 7 # U %.8.<.].>X>X;X{.,X>X,X'.b f z Y                         ",
"          Y ( &.y.#X&X<X<X<X<X<X<X<X<X<X<X<X<X<X<X&X#Xy.$.~ X.C.H.L.(.:. .=.0.+X+X>XgXlXlXgXgX[.' d d                           ",
"        g ( 7.i.*X<X<X<X<X<X<X<X<X<X<X<X<X<X<X<X<X4X&X#Xr...t g.Y.sX;X>.W _ .X@X1.].>XgXgX>X[.>.b s                             ",
"        j ] XX2X2X<X<X<X<X<X<X<X<X<X<X<X<X<X<X<X<X%Xy.8.%.Q t 3 B.Z.v f h ^ 6.8.$.1.,XdX:X`.' f                                 ",
"      U | 7.@X2X2X&XOXOX*X<X<X<X<X<X<X<X<X<X<X<X2X%Xt.4.;.) Q S y i [ ' z Y { ;.} ,.+X+X>.b f                                   ",
"    j ( 9.$X&X&XOXXXy.OX*X<X<X<X<X<X<X<X<X<X<X4X%XOXu.=.Q ! ! w r r M [ v I ( ` / ' >.o.v w                                     ",
"    j ] XX<X<XXX,.,.OX2X2X<X&X&X<X<X<X<X<X<X<X%Xq.*. .! p 2 1 : - 1 3 p w W ) / z x f v Z.S.                                    ",
"    g ] XX*Xw.=.3.r.%X2X2X%Xy.y.%X<X<X<X<X=Xi.w.H t r C.T.T.S.l.l.S.Y.E.K./.+.Q q r Z.L.E.E.G.B.                                ",
"  Y ) ,.@XOX=.$.q.#X&X2X2X%X9.3.y.#X&X&X#X0.+.H u f.f.M.K.R.R.Y.K.P.E.!.!.wX/.A.V.S.wXiXuXyXJ.B.                                ",
"k ^ *.t.*XXX . .XX2X2X<X&XXX .| 3.r.#X#Xr.#.p : u C.Z.Z.Z.L.E.Q.Y.P.Y.E.yXyXrXE.E.rXaXpXuXyXJ.B.                                ",
"j ^ *.t.*X.X] ] .X2X2X%Xy.*.^ ^ *.e.r.r.e.#.p 6 8 b :.`.[.{.F.S.N.J.Q.yXE.E.aXpXpXpXuXuXuX!.J.B.                                ",
"j ^ *.r.t.7.E E 7.$X&X@X7.{ Y I | *.4.e.e.#.p 6 + b <.+X>X,X{.~.x.l.H.K.H.J.R.rXrXyXiXyXY.J.S.N.                                ",
"k E %.4.e.*.E U &.r.$Xq.=.( I k U { 5.e.e.#.w 7 x b `.:XdXdX:X'.a 6 y k.k.M.H.J.G.P.R.T.S.B.B.                                  ",
"j I ( $.4.*.E E *.e.e.4.%.( I j j ^ &.e.e.*.E h d b `.:X>X>X:X`.b + 6 , , 2 l.D.D.D.B.B.N.N.                                    ",
"    I ( 3.*.E E *.e.e.4.$.( Y j j Y { &.4.*.^ h d b `.:X:X:X:X`.b 8 , p.d.h.h.h.n.h.d.d.                                        ",
"    g ^ 3.*.E I } 3.u.4.$.( I j j I Y { 3.6.^ h d v M ~.~.~./.X.v 8 & p.s.s.s.b.n.b.p.%                                         ",
"    j ^ &.*.) ~ ( } 5.8.&.{ Y j     g ^ 3.3.^ g x 8 e f.S.J.J.Z.w 7 & p.s.s.h.b.n.b.p.%                                         ",
"    j I ) %.5.&.^ ^ *.e.e.*.^ j     l ^ -.-.^ w 6 1 l.J.rXpXpXwXx., % a.a.p.s.h.n.b.p.& 9 f f f                                 ",
"        Y ) 5.3.E I { -.8.5.| ~ I j j ~ } %.{ ! r z.0XaXpXaXL.C.w + 9 7 7 7 7 e g.j.g.f.e w [ ' c                               ",
"        l ^ %.&.| ( ^ { 5.u.3.} E j j Y ( | | Q t c.eXvXpXwXz.6 v ' :.:.:.:.' [ a C.S.S.3 p (.<.:.b f                           ",
"        j Y (  .5.&.E E &.e.e.3.( k         | ! t c.rXpXuXR.l.i '.:XdXgXgXdX:X`.n v A.H.z.i (.[.].:.b s                         ",
"            I ^ | { I I ) &.8.5.} ^ I j         ; M.wXiXQ.J.f.i {.gXgXgXgXgXgX:X<.:.v X.F.S.x.a >.2.b s                         ",
"              k Y ( | { ^ ) 3.e.5.%.^ j         , l.Y.Q.R.G.3 v.;XlXgXgXgXgXlX>X[.2.c v  XY.g.e v n c                           ",
"                l ^ &.&.E E %.8.e.3.^ j         = k.G.Y.Y.G.f.i {.>XdXdXdXdX>X:X<.o.[ /.sXQ.M.6 + s                             ",
"                j I ) ) I I ) %.4.3.^ j         = k.J.Y.Y.G.f.t o.].[.+X+X[.].:.b X. XiXuXE.M.=                                 ",
"                    I I     I { 4.5.( j         = c.R.yXR.G.f.6 v b n n n n b v 7 p S.P.K.S.k.=                                 ",
"                    j j       E *.6.^         : 3 M.J.T.E.P.z.5 7 8 8 8 8 + # # q r y k.k.f.1                                   ",
"                    k k                     = 3 B.M.2 M.E.E.M.= - : - ; : r 0 0 Z B r < - ;                                     ",
"                                            = k.G.H.3 c.E.E.M.: z.z.1 < D G N N A J J G q 0                                     ",
"                                            = 3 c.l.: l.Y.Y.l.1 c.c.1 y A.K C V K ^.^.K Z @                                     ",
"                                            2 1 - = : k.S.S.3 3 N.N.3 u A.^.Z Z L |.|.^.Z @                                     ",
"                                        = 1 l.l.1 2 l.c.3 - = f.G.G.k.x. X XG N G L |.^.Z @                                     ",
"                                        = : 3 3 z.M.N.c.1 = = : k.V.L. X X^.Z N G K L P Z @                                     ",
"                                      - 3 3 - 1 M.N.l.y r * ; = , u ). X^.G V C J P G Z N                                       ",
"                                    2 k.N.N.3 1 l.l.1 < q q * = - u A.A.Z 0 V A J J C @                                         ",
"                                = f.S.Y.!.T.l.= - : - < B B < < D P K J V 0 C A J J V @                                         ",
"                                = l.K.Q.iXE.M.= , = = r G G D D J J A C V V C A J J V @                                         ",
"                                = 3 S.P.!.R.c.=     = < D J K L L P V 0 q B B B G G Z V                                         ",
"                                    - z.G.G.k.=     = - : u A.|.|.A.Z q * ; ; r B A J G N 0                                     ",
"                                        k.k.3 =     = y Z.Z.V.u u y r ; = , = ; < r r r r ; = ; q @                             ",
"                                          = = =   = = u A.A.C.F F u > 1 u F u r : = = - r u u D A C N                           ",
"                                                = - = r G L |.|.|.A.y y A.|.L G r = = r G P P P P J V @                         "
};
