/* XPM */
static char *auugi_ki95r[] = {
/* columns rows colors chars-per-pixel */
"64 64 243 2 ",
"   c None",
".  c #0D302A",
"X  c #292A28",
"o  c #2B2112",
"O  c #433B16",
"+  c #715936",
"@  c #5A753D",
"#  c #726837",
"$  c #504920",
"%  c #0E3778",
"&  c #233F73",
"*  c #3F605E",
"=  c #32556A",
"-  c #355A6C",
";  c #375966",
":  c #365D71",
">  c #395E74",
",  c #2D506B",
"<  c #3D6469",
"1  c #396275",
"2  c #3A6579",
"3  c #3A687C",
"4  c #2F6376",
"5  c #3F545E",
"6  c #48585C",
"7  c #5C544B",
"8  c #6B5743",
"9  c #695447",
"0  c #587645",
"q  c #537252",
"w  c #737050",
"e  c #4B5C65",
"r  c #456767",
"t  c #556B67",
"y  c #476C79",
"u  c #4A7579",
"i  c #577679",
"p  c #54726E",
"a  c #6C7572",
"s  c #8F5C2C",
"d  c #8D642E",
"f  c #986735",
"g  c #867533",
"h  c #8A7434",
"j  c #897936",
"k  c #8D7D38",
"l  c #877835",
"z  c #997939",
"x  c #8D6331",
"c  c #A56F38",
"v  c #91724D",
"b  c #AB7646",
"n  c #B27D4C",
"m  c #AE7E54",
"M  c #8C7F6F",
"N  c #5E8149",
"B  c #58835A",
"V  c #62864C",
"C  c #628A4E",
"Z  c #668B54",
"A  c #66965A",
"S  c #7A835C",
"D  c #588A6D",
"F  c #588778",
"G  c #679965",
"H  c #71896F",
"J  c #6CA369",
"K  c #75AD77",
"L  c #78B67D",
"P  c #6FAA6F",
"I  c #94833B",
"U  c #9C8B3E",
"Y  c #98863C",
"T  c #8E823C",
"R  c #A5873D",
"E  c #9E8E41",
"W  c #988947",
"Q  c #9A9352",
"!  c #928B51",
"~  c #A48C44",
"^  c #A39343",
"/  c #AA9444",
"(  c #AB9946",
")  c #AE9D49",
"_  c #A4964C",
"`  c #B29C49",
"'  c #B78656",
"]  c #A69852",
"[  c #AA8D58",
"{  c #B5A34A",
"}  c #BCAA4D",
"|  c #B9A54B",
" . c #B9AA56",
".. c #ACA45B",
"X. c #949165",
"o. c #B3906B",
"O. c #9DA262",
"+. c #A8AA68",
"@. c #BCAC64",
"#. c #BAB565",
"$. c #C3AD53",
"%. c #C5B353",
"&. c #CBBA56",
"*. c #CDBD59",
"=. c #C5B35A",
"-. c #D1BD58",
";. c #C4AC4E",
":. c #C79667",
">. c #CA9A6D",
",. c #C7B867",
"<. c #DAA878",
"1. c #CEB573",
"2. c #CF9A67",
"3. c #D3C35B",
"4. c #DBCA5E",
"5. c #D6C65C",
"6. c #CFC05B",
"7. c #D2C364",
"8. c #DDCC61",
"9. c #D8C969",
"0. c #D7CA7B",
"q. c #DDD279",
"w. c #D2C66E",
"e. c #E4D464",
"r. c #E7D86B",
"t. c #EADC75",
"y. c #E6DA78",
"u. c #E0CF61",
"i. c #ECE07E",
"p. c #023997",
"a. c #043688",
"s. c #013DAC",
"d. c #0E4691",
"f. c #3C6D82",
"g. c #3B7290",
"h. c #0A4AB4",
"j. c #3275AD",
"k. c #427385",
"l. c #457A8C",
"z. c #47798B",
"x. c #567988",
"c. c #4C7C90",
"v. c #637781",
"b. c #0146C7",
"n. c #054DD0",
"m. c #209D97",
"M. c #4B8292",
"N. c #4E8A9B",
"B. c #4B8699",
"V. c #528892",
"C. c #658588",
"Z. c #699090",
"A. c #77AB8D",
"S. c #5798A6",
"D. c #4988A1",
"F. c #7597AE",
"G. c #5CA7B3",
"H. c #5BA2AD",
"J. c #62AAB6",
"K. c #63B1BC",
"L. c #74ACB0",
"P. c #68BBC3",
"I. c #7FB8C3",
"U. c #24CBC8",
"Y. c #6DC5CC",
"T. c #71C6CC",
"R. c #75CDD3",
"E. c #7AD6DA",
"W. c #74D1CC",
"Q. c #7BDDE1",
"!. c #7FE4E7",
"~. c #939790",
"^. c #81B98B",
"/. c #8FAE94",
"(. c #B1A38B",
"). c #8CAFB2",
"_. c #AEB4B2",
"`. c #DAAC85",
"'. c #CCAB8D",
"]. c #E4B485",
"[. c #E7BC96",
"{. c #CCBAA7",
"}. c #E1BFA2",
"|. c #87C398",
" X c #90C9AE",
".X c #D6CE85",
"XX c #DBD388",
"oX c #D8D097",
"OX c #E6DD87",
"+X c #EBC59D",
"@X c #E8DA94",
"#X c #ECE48C",
"$X c #ECE285",
"%X c #ECE693",
"&X c #EEE99C",
"*X c #ECE697",
"=X c #F0EA9B",
"-X c #F2E88E",
";X c #D4C9AB",
":X c #F5CCAA",
">X c #F9D6B8",
",X c #F0CEAC",
"<X c #EFEBA3",
"1X c #EAE4A3",
"2X c #F0ECA5",
"3X c #F1EDAA",
"4X c #F0E7A1",
"5X c #F2EFB4",
"6X c #F3EFB8",
"7X c #F4F1B9",
"8X c #EDE8AF",
"9X c #9AB5C5",
"0X c #8BAFC4",
"qX c #ABBBC6",
"wX c #8CD2D7",
"eX c #A8CDD6",
"rX c #90DBE1",
"tX c #B9D5E6",
"yX c #85E9EB",
"uX c #95FDFB",
"iX c #90F7F6",
"pX c #B8FAFB",
"aX c #ACEFF1",
"sX c #93E6DB",
"dX c #FDDDC2",
"fX c #E9D4C8",
"gX c #FFE4CB",
"hX c #FAE6C5",
"jX c #F6F2C3",
"kX c #F7F4CA",
"lX c #FFE9D1",
"zX c #FAF7D6",
"xX c #EDE8C5",
"cX c #CDDCE4",
"vX c #D4EAEF",
"bX c #FBFAE3",
"nX c #FDFCEC",
"mX c #FFFFF6",
"MX c #FEFEF2",
"NX c #FFFFFA",
"BX c #F6FBFE",
"VX c #E2ECF3",
"CX c #CCDBD2",
/* pixels */
"                                        I I I I I I W W W I I I I I                                                             ",
"                            j l l g g U } 7.0..X.XXXoX;X;XoXXX0.7.} U g l j                                                     ",
"                          Y (  .@.@.@.,.y.#X=X2X2X3X7XjXkXzXzX7X%Xq.,.@. .( I                                                   ",
"                    W W Q ..7.y.*X2X<X<X<X<X<X<X<X<X<X3XjXzXbXzX6X<X<X*Xy.7.) Y                                                 ",
"                j _ 0.1X8X8X4X&X<X<X<X<X<X<X<X<X<X<X<X6XbXbXjX3X<X<X<X<X&X#X9.%.E j                                             ",
"              W @.oXjXzXzXjX3X<X<X<X<X<X<X<X<X&X&X3XkXzXbXzX5X<X<X<X<X<X<X<X%Xy.3.{ U                                           ",
"            _ ,.1XzXnXMXbXkX6X3X<X<X<X<X3X5X6X7X7XkXbXbXkX6X3X<X<X<X<X<X<X<X<X&X$X9.^ l                                         ",
"        l _ .X6XbXmXmXmXmXnXzXjX5X2X2X5XjXzXnXmXMXnXzX7X3X<X<X<X<X<X<X<X<X<X<X&X&X.X] T                                         ",
"        g ] oXzXnXmXmXmXmXmXMXnXbXbXbXbXnXMXmXMXbXkX6X3X<X<X<X<X<X<X<X2X<X&Xi.t.t.y.XX1._ l                                     ",
"      W ...XxXnXmXmXmXmXmXmXmXNXNXmXnXbXbXbXzXkX7X5X3X<X<X<X<X<X<X2X<X&X-Xq.+.X.X.+.XXy.) h                                     ",
"    l ] XX7XzXMXmXmXmXmXMXnXnXbXbXzXkXjXjX7X3X<X<X<X&X&X<X<X<X<X&X&X%XOXw.+.H y : t +. .W w                                     ",
"    l ] XX5XjXzXnXmXmXnXzXkX6X&XOXOX&X3X3X2X<X<X<X%Xy.y.%X<X<X%Xy.r.r.#.H C.9X9Xx.- r r r ; - - = -                             ",
"    j ] XX5XjXzXzXkX3X4X3X5X3XOX7.7.#X2X2X<X<X&X$Xq.-.7.@X&X$X9. ._ S H ).).F.F.).9XqXqXqXqX0XF.k.=                             ",
"    j _ 0.&X5XjXjX1X9.8.OX%X%Xq.=. .1..XOX%X%X$Xr.3.{  .q.$Xr.&.U w a F.eXwXc.c.0XcXBXNXBXvXeXF.k.=                             ",
"    j ^ 3.t.%X<X2XOX=.} 3.e.e.8.%.) U ^ &.e.e.e.e.*.^ ^ &.e.e.&.U X.eXtXwXK.S.N.N.L.cXVXtX0Xx.;                                 ",
"    j ^ 3.r.r.t.t.7._ E { &.4.e.e.3.| / ^ { 3.r.e.e.3.%.( ^ } { I X.CXtXL.N.B.S.G.G.Z.x.x.i w #                                 ",
"      E { %.4.e.e.&.E k U ` %.} T # + $ O O + j ) %.3.%.( U E U R ] (._.).9XeXeXtXeX).C.> e Q { U                               ",
"        l ^ &.e.e.*.^ j j Y ( k O o o X X X . . $ g U ` { ) U Y / R z ! _.tXcXcXcXcXtX9XC.H ,.5.{ Y                             ",
"        j Y ` %.4.3.^ j     I h s f o.}.fXeXU.m.. o # U ` { ` / z f x v t y y y y y y a +.8.e.e.8.%.^ j                         ",
"          I Y ( $.%.{ ^ I l     s ' +XfX_.P.U.U.L.(.'.1. .` R b :.>.>.o.v w ! O.O.O.O.+.5.r.$X#X#Xy.7.{ U                       ",
"              I ^ ( ( ( ^ Y     s n [.{.p 4 S.W.CXgX+X1.{ R f n [.>X:X<.b c -.r.t.t.t.t.t.OX&X2X2X&X$X9.} ^ I                   ",
"                k k j Y ( / f s f n <.o.6 6 (.+X].<.$.) Y h x m }.:X].:.b R -.t.%X<X2X2X<X<X<X<X<X<X<X%Xy.*.^ I                 ",
"                        I z f b '.,X>X,X{.;X>X:X].<.8.%.U # 7 a '.<.n b ;.9.OX&X<X2X<X2X<X<X<X<X<X<X<X<X&XOX9.} U l             ",
"                          d d ' [.gXgXlXlXgX:X+X+X0.=. .@.(.L.H.C.X./ $.y.#X&X<X<X2X2X2X<X<X<X<X<X<X<X<X<X&X#Xy.&.( U           ",
"                            s b >.[.>XgXgX>X].1.@X.X_ W >.;XsXY.g.t ..r.$X&X<X<X<X<X<X<X<X<X<X<X<X<X<X<X<X<X<X&Xi.7.^ l         ",
"                                f ' `.:XdX,X1.%.8.6.^ h f v Z.B.2 t Q %.8.y.%X<X<X<X<X<X<X<X<X<X<X<X<X<X<X<X<X2X2X.X] j         ",
"                                  f n >.+X+X,.} ;.| U z ' [ i y w Q ` ;.4.t.*X2X<X<X<X<X<X<X<X<X<X<X<X&XOXOX&X3X3X@X7.} U       ",
"                                    w v o.:.` / ` ( Y v [ M r r w ! ! Q =.8.$X%X2X<X<X<X<X<X<X<X<X<X<X&XOXy.XXOX&X&X#X9.( j     ",
"                                    S.Z.v f x z / ) W w p 2 : - - 1 2 p !  .*.q.%X<X<X<X<X<X<X<X&X&X<X2X2XOX,.=.XX<X2XXX] j     ",
"                                B.G.E.E.L.Z.r q W ../.K.E.Y.S.l.l.S.T.T.C.t t H w.i.=X<X<X<X<X%Xy.y.%X2X2X%X9.3.=.w.*XXX] g     ",
"                                B.K.yXuXiXwXH.V.A./.wX!.!.E.P.K.Y.R.Y.K.M.f.f.u H +.0.#X&X&X#Xy.3.9.#X2X2X&X#Xq.$.=.OX@X,.) U   ",
"                                B.J.yXuXpXaXrXE.E.rXyXyXE.Y.P.Y.Q.E.L.Z.Z.Z.C.u : p #.r.#X$Xt.3.|  .XX&X<X2X2XXX . .XX*Xt.*.^ j ",
"                                B.J.!.uXuXuXpXpXpXaXE.E.yXQ.J.N.S.F.{.[.`.:.b 8 6 p #.e.r.r.e.&.^ ^ *.y.%X2X2X.X] ] .X*Xt.&.^ j ",
"                                N.S.J.T.yXiXyXrXrXR.J.H.K.H.l.x.~.{.,X>X+X<.b + 6 p #.e.e.4.-.| Y I { 7.@X&X$X7.E E 7.t.r.*.^ j ",
"                                  B.B.S.T.R.P.J.G.H.M.k.k.y 6 a '.:XdXdX:X`.b + 7 w #.e.e.3.{ U k I / =.q.$Xr.&.U E &.e.4.%.E k ",
"                                    N.N.B.B.D.D.D.l.4 , , 6 + b `.:X>X>X:X`.b d h E *.e.e.&.^ j j I ( %.4.e.e.*.E E *.4.$./ I j ",
"                                        d.d.h.n.h.h.h.d.p., 8 b `.:X:X:X:X`.b d h ^ *.8.&.{ U j j I ( $.4.e.e.*.E E *.3.( I     ",
"                                        % p.b.n.b.s.s.s.p.& 8 v X./.~.~.~.M v f h ^ 6.3.{ U I j j Y ( $.4.u.3.} Y E *.3.^ l     ",
"                                        % p.b.n.b.h.s.s.p.& 7 w Z.J.J.S.k.e 8 x g ^ 3.3.^ l     j U { &.8.3.} ^ ^ ) *.&.^ j     ",
"                                x x x 9 & p.b.n.h.s.p.a.a.% , x.wXpXpXrXJ.z.1 6 w ^ -.3.^ l     j ^ *.e.e.*.^ ^ &.3.%.( Y j     ",
"                              c ' [ w e f.g.j.g.e 7 7 7 7 9 8 w C.L.aXpXaXI.z.r ! { %.} ^ j j I ^ | 3.8.-.{ I E 3.3.) I         ",
"                          f b :.<.(.p 3 N.S.C.a [ ' :.:.:.:.' v 6 z.wXpXvXrXc.t Q | | ( I j j E } 3.u.3.{ ^ ( | &.%.^ l         ",
"                        s b :.].[.(.i k.H.A.v n `.:XdXgXgXdX:X'.i z.R.uXpXrXc.t ! |         k ^ 3.e.e.&.E E &.3.} / I j         ",
"                        s b 2.>.a x.S.H.X.v :.`.,XgXgXgXgXgXgX{.i f.G.Q.iXwXM.;         j I ^ } 5.8.&.` Y Y { | ^ I             ",
"                          c n v e g.Y. Xv c 2.[.>XlXgXgXgXgXlX;Xv.3 H.R.Q.P.z.=         j ^ %.3.e.3.) ^ { | / U k               ",
"                            s + 6 M.Q.sX/.[ :.<.+X>XdXdXdXdX>X{.i f.G.Y.Y.G.k.=         j ^ 3.e.8.%.E E &.&.^ l                 ",
"                                = c.E.iXiX XX.b >.].[.+X+X[.].o.t f.G.Y.Y.G.k.=         j ^ 3.4.%.( Y Y ) ) Y j                 ",
"                                = k.S.K.P.S.p 7 v b n n n n b v e f.H.R.yXR.c.=         j ( 5.4.{ I     Y Y                     ",
"                                  1 f.k.k.y r q # # + 8 8 8 8 7 6 z.P.E.T.J.c.2 >         ^ 6.*.E       j j                     ",
"                                    ; ; < r B C 0 0 r - - - - - = M.E.E.M.1 M.B.2 =                     k k                     ",
"                                    0 q G J J A V N G D < 1 z.k.> M.E.E.c.3 H.G.k.=                                             ",
"                                    @ Z K |.|.K C C K A.y 1 c.c.1 z.Y.Y.z.> l.c.2 =                                             ",
"                                    @ Z ^.|.|.K C Z ^.A.u 2 N.N.2 3 S.S.k.> = - 1 2                                             ",
"                                    @ Z A.|.L G N G  X Xx.k.H.H.k.= - 3 c.l.2 1 l.l.1 =                                         ",
"                                    @ Z P L K G N Z ^. X XL.V.3 > = = 1 c.N.M.z.3 2 > =                                         ",
"                                      V Z G P J C C G ^. X).u , = ; * r y l.N.M.1 - 2 2 -                                       ",
"                                        @ V J J A V 0 Z A.A.u - = ; q q ; 1 l.z.1 2 N.N.k.2                                     ",
"                                        @ V J J A C 0 V J K P D < < q B < - > - = z.T.!.Y.S.f.=                                 ",
"                                        @ V J P A C V V C A J J D D G G r = = , = M.E.iXQ.K.z.=                                 ",
"                                        V Z J G B B B q 0 V P L L K J D < =     = c.R.!.P.S.3 =                                 ",
"                                    0 N G J A B r - - * q Z A.|.|.A.u - - =     = k.G.G.z.-                                     ",
"                            @ q ; = ; r r r r < - = = = ; r y u u F Z.Z.y =     = 2 k.k.                                        ",
"                          N C A D u u r - = = - r F F u 1 : u F F C.A.A.y = =   = = =                                           ",
"                        @ V J P P P P G r = = r G L |.A.y y A. X X|.L G r = - -                                                 "
};
