/* XPM */
static char *a2g49_2x24k[] = {
/* columns rows colors chars-per-pixel */
"64 64 180 2 ",
"   c None",
".  c #332824",
"X  c #50463F",
"o  c #524741",
"O  c #564A45",
"+  c #574D48",
"@  c #5D534B",
"#  c #60584C",
"$  c #696057",
"%  c #6B615C",
"&  c #706760",
"*  c #756C62",
"=  c #7F7566",
"-  c #7E756B",
";  c #867D73",
":  c #887F73",
">  c #878274",
",  c #8C8475",
"<  c #8D8479",
"1  c #8F8979",
"2  c #9E8C76",
"3  c #948C7D",
"4  c #97907E",
"5  c #9C917D",
"6  c #A7937A",
"7  c #958E82",
"8  c #9B8E85",
"9  c #9B9286",
"0  c #9C958A",
"q  c #9E988E",
"w  c #9C9890",
"e  c #A19586",
"r  c #AD9A81",
"t  c #A49A8C",
"y  c #AB9B88",
"u  c #B19E86",
"i  c #B09B88",
"p  c #A49D92",
"a  c #A99F93",
"s  c #AEA28E",
"d  c #B7A38D",
"f  c #A6A297",
"g  c #ABA394",
"h  c #AFA897",
"j  c #ABA49A",
"k  c #B5A593",
"l  c #B9A690",
"z  c #B6A892",
"x  c #BAAB96",
"c  c #B1A799",
"v  c #B3AB9C",
"b  c #BBAD9A",
"n  c #BFB19C",
"m  c #B5ADA3",
"M  c #B9AEA0",
"N  c #B7B0A4",
"B  c #BCB2A4",
"V  c #BDB5AA",
"C  c #BFB9A9",
"Z  c #C1AE9A",
"A  c #C3B29D",
"S  c #C9B69F",
"D  c #C9B89F",
"F  c #C4B5A3",
"G  c #CAB6A3",
"H  c #C6B9A6",
"J  c #CAB9A6",
"K  c #C3B6A9",
"L  c #C4BAAB",
"P  c #CCBEAB",
"I  c #D4BEA7",
"U  c #D0BFAD",
"Y  c #C5BCB2",
"T  c #CABEB3",
"R  c #CFC1A7",
"E  c #C6C0AD",
"W  c #CDC0AC",
"Q  c #D3C2AD",
"!  c #DAC6AE",
"~  c #CCC2B4",
"^  c #CEC8B7",
"/  c #CDC6BB",
"(  c #CEC9BD",
")  c #D4C5B3",
"_  c #D9C7B2",
"`  c #D5CAB5",
"'  c #DACBB4",
"]  c #D4C6BB",
"[  c #D4CABC",
"{  c #DCCDBB",
"}  c #DED1BD",
"|  c #E2CEB7",
" . c #E1CEBB",
".. c #E2D2BD",
"X. c #E9D5BE",
"o. c #CFC8C0",
"O. c #D5CEC2",
"+. c #DACEC2",
"@. c #D6D0C3",
"#. c #DDD3C4",
"$. c #DED5CA",
"%. c #DFD8CB",
"&. c #DFD9D1",
"*. c #E3D5C4",
"=. c #EAD7C3",
"-. c #E5D9C5",
";. c #EADBC5",
":. c #E1D6CA",
">. c #E4DACC",
",. c #EADDCC",
"<. c #F0DECC",
"1. c #E5DDD2",
"2. c #EADED2",
"3. c #EADFD8",
"4. c #F1DFD2",
"5. c #E7E0CD",
"6. c #ECE1CD",
"7. c #F1E2CD",
"8. c #E7E0D6",
"9. c #ECE2D4",
"0. c #EDE4DB",
"q. c #EEE8DB",
"w. c #F2E5D4",
"e. c #F9E6D4",
"r. c #F5EAD6",
"t. c #F6EDD7",
"y. c #F4E9D5",
"u. c #F8EAD6",
"i. c #F9EDD5",
"p. c #FAE9D6",
"a. c #F3E3DA",
"s. c #F6E7D8",
"d. c #F7E7DD",
"f. c #F1E6DB",
"g. c #F3EBD8",
"h. c #F6EAD9",
"j. c #F6E8D9",
"k. c #F3ECD8",
"l. c #F6EDDA",
"z. c #F7E8DD",
"x. c #F7EFDC",
"c. c #F3EADD",
"v. c #F8EBD8",
"b. c #F9EADB",
"n. c #FAEFD8",
"m. c #FAEBDD",
"M. c #FBECDF",
"N. c #FBEDDC",
"B. c #FCEDDF",
"V. c #FAEDDC",
"C. c #F7F0DC",
"Z. c #F9F1DC",
"A. c #FEF0DE",
"S. c #FCF4DE",
"D. c #FAF1DF",
"F. c #EEE5E0",
"G. c #EFE9E0",
"H. c #F0E7E0",
"J. c #F0EBE0",
"K. c #F2EBE4",
"L. c #F4EBE2",
"P. c #FBEFE1",
"I. c #FDEDE2",
"U. c #F9EEE2",
"Y. c #F7F1E6",
"T. c #F5F1E4",
"R. c #FFF1E1",
"E. c #FFF7E1",
"W. c #FEF5E1",
"Q. c #FFF1E7",
"!. c #FFF3E6",
"~. c #FAF1E4",
"^. c #FFF9E3",
"/. c #FFFDE7",
"(. c #FFF5E9",
"). c #F9F4EE",
"_. c #FDF4E9",
"`. c #FDF8EE",
"'. c #FFF9EA",
"]. c #FFFDF7",
/* pixels */
"                                                                                                                                ",
"                                                                                                                                ",
"                                                                                                                                ",
"                                                                                                                                ",
"                                                  J.O.m g v V L ~ L j q v O.Y.                                                  ",
"                                            ( g ^ [ ~ K K ~ [ ` [ [ K B ~ @.$.~ f &.].                                          ",
"                                      0.m Y [ E 5.9.9.,.,.9.9.>.w.j.9.,.y.5.>.~ c >.( V ).                                      ",
"                                  K.f O.~ >.l.-.6.6.6.w.y.b.m.m.y.M.y.w.j.,.y.>.:.5.~ L $.( `.                                  ",
"                                V 1.T 9.9.6.-.6.i.7.u.A.R.B.M.!.M.b.j.y.R.j.,.w.,.k.0.0.^ C >.1.                                ",
"                            &.m ~ 9.,.,.` ^.6.;.i.i.W.b.y.(.!.d.I.w.y.>.y.r.L 6.,.D.W.k.9.C.E #.O.0.                            ",
"                          m O.#.w.w.w.P ` Q -.-.y.7.b.*.w.!.z.a.d.] w.9.s.w.-.6.-.^.^.^.y.W.y.5.g O./                           ",
"                        q O.>.w.;.,.7.;.} } y.,.6.-.-.*.w.>.I.[ ) z.[ w.9.6.b.{ 6.r.t.S./.5.5.5.9.V 1.f                         ",
"                      j [ 2.j.-.) *.,.,.7.*.P *.*.W *.*.{ 2.P.#.K b T ` >.} ` { y.6.l.W.l.` c.,.#.+.a 1.j                       ",
"                    0 [ ,.6.' w.-.;.{ N.*.} P { P ~ #.w.>.9.[ :.,.w.w.j.:.l.r.} r.-.y.'.#.~ '.0.f.j.:.a O.f                     ",
"                  w $.0.,.b.,.,.) *.*.' ,.>.w.*.,.M.P 9.5.~ } y.9.V.V.5.V.l.w.r.D.[ #.f.c.2.[ f.P.b.2.:.9 $.q                   ",
"                / 0.>.2.r.) 7.w.u.{ ,.-.{ s.2.w.j.{ >.~.j.y.g.y.M.j.l.D.l.l.l.D.0.2.#.#.c._._.~.!.j.M.2.#.0 @.@.                ",
"              K.#.:.w.9.} r.) r.;.{ ,.*.,.j.9.z.f.3.z.U.~.c.~.T.U.P.U.c.c.c.c.U.c.~.>.O.O.Y.(.O.g.c.f.9.g.>.9 t                 ",
"              9 [ 9.y.6.6.*.9.r.} ,.,.-.,.z.P.0.f.0.c.c.0.c.9.q.c.c.U.U.U.U.L.J.L.L.U.~.[ 1.#.>.*.D.#.>.0.>.[ ~ 4               ",
"            o.$.>.,.,.w.,.} M.-.*.,.-.j.j.f.z.z.c.c.c.0.9.c.>.%.c.c.c.U.U.U.L.c.U.0.J.~.U.1.V / [ L >.0.0.>.9., #.[             ",
"            p 9.,.>.V.,.{ ,.F >.*.,.r.g.f.~.c.f.z.U.0.0.0.>.g.>.c.c.c.c.c.U.J.J.0.(.~.U.L.U.~.>.[ 0.9.9.9.f.9.5.v 3             ",
"          m 1.>.>.,.-.w.-.-.~ F ,.9.M.g.j.z.c.f.c.P.f.0.>.K R.c.0.0.0.0.c.J.L.L.J.0.L.0.c.`./ !.0.c.>.,.9.z.!.#.3 #.[           ",
"          ; 0.9.9.r.y.F ' ..} 9.w.0.0.c.~.2.c.c.f.z.0.0.,.K y.R.>.3.0.0.f.J.J.L.J.~.L.U.U.~.9.#.>.#.~ z.[ w.,.c.#.h p           ",
"        0.#.,.,.6.-.7.) *.>.y.,.0.c.c.0.0.z.U.0.c.f.0.f.0.>.~ j.9.9.0.0.J.J.J.J.c.Y.L.0.Y.0.c.c.#.>.0.[ ~ z.j.w.5.1 [ q.        ",
"        9 #.9.,.;.*.*.*.' -.>.j.U.9.U.c.0.~.3.~.c.c.c.0.>.M.g l.c.c.0.0.J.J.J.J.L.L.J.L.J.~.c.U.0.5.#.f.M.9.j.c.w.#.%.j         ",
"        a #.6.,.w.w.,.>.j.*.6.w.0.0.q.J.J.f.J.L.c.L.U.f.9.>.9.w.(.c.0.0.J.J.0.L.L.L.L.c.0.0.0.c.g.>.:.9.w.z.R.g.,.w.1 <         ",
"      9.#.-.;.;.,.7.>.-.w.9.9.M.c.c.J.L.J.J.J.J.L.L.L.f.f.9.5.{ ~.0.0.0.c.f.0.L.L.L.L.~.~.U.J.J.9.!.~ :.>.j.2.*.R.>.1 j         ",
"      V :.-.-.7.;.Q ' ,.#.9.9.c.c.J.L.L.J.J.H.0.J.c.z.f.g.y.,.K U.9.0.J.0.0.H.L.K.J.J.J.J.c.c.c.U.9.z.*.#.s.K ,.y.w.C @./       ",
"      > :.;.` y.;.U ] 9.*.9.w.g.0.J.J.0.0.H.H.0.J.0.z.f.f.w.5.K ~.9.0.L.J.0.J.K.K.K.J.J.c.f.0.c.f.9.(.>.>.s.*.9.j.9.[ 1.j       ",
"      3 -.6.;.{ =.w.:.:.9.c.0.0.0.c.c.0.0.F.H.0.J.0.c.q.g.0.9.E ~.9.0.L.H.J.J.J.0.F.J.L.J.0.0.9.f.z.:.f.9.[ ,.w.r.y.#.[ 0       ",
"      9 ,.6...;.;.b.2.>.f.9.q.9.c.f.0.0.0.0.F.0.J.0.0.q.c.g.9.~ c.9.0.f.0.J.H.F.0.0.H.J.f.0.0.0.9.>.[ ] >.K ~ >.*.y.>.g ;       ",
"      g ` -...;.-.*.9.z.f.9.c.q.c.0.0.0.0.0.0.0.0.0.0.0.c.0.9.~ 0.9.0.0.0.H.0.0.J.H.0.H.J.c.J.U.0.U.2.T w.:.,.W r.w.#.g 0       ",
"      N -...' R J ) ,.3.0.c.9.c.0.0.0.f.f.0.0.0.1.0.f.9.0.9.9.[ 9.0.J.0.0.0.3.0.0.0.0.0.c.c.0.0.0.0.0.1.+.{ ~ k w.9.#.t 9       ",
"      #.#.{ } ' ..*.,.>.f.0.1.c.f.3.0.L.3.0.3.J.0.0.0.0.0.0.1.$.0.f.3.c.0.1.0.3.3.1.0.1.U.J.0.3.:.0.3.m.,.>.w.<.<.w.#.9 0       ",
"      L #.} n ' ' { -.*.9.9.8.0.0.z.3.3.0.1.c.>.0.3.0.0.1.1.1.0.9.0.f.:.0.3.1.0.3.0.9.9.0.J.0.0.0.1.f.>.*.m.,.e.<.m.#.g 3       ",
"      g >.,.' A Q { *.>.2.9.1.1.9.>.9.2.1.O.$.9.f.9.f.0.1.1.>.0.>.:.#.1.0.9.1.9.0.f.0.0.9.3.9.9.0.0.1.w.>.*.<. .;.,.+.B 0       ",
"      7 [ 6.z n G ) ) >.2.2.1.1.9.9.2.*.2.0.#.2.L.f.3.2.1.1.9.9.:.Y U.+.$.2.0.3.Y $.f.0.9.>.f.0.9.1.a.2.-.) ' { _ *.L :.7       ",
"      < [ *...D P ) ) ,.2.1.1.1.>.2.{ ~ #.K #.c.>.0.>.>.>.>.9.>.$.m T 9.1.1.9.f.] 9.z.~.+.>.1.0.9.U.w.2.*.....7.P ,.g c.p       ",
"      c [ *.z ' G S J { :.>.9.1.:.[ [ ,.v 0.'.>.#.z.z.~.c.9.9.#.0.~ +.v ~ 1.9.9.1.~ 2.2.P.[ >.9.f.2.2.>.J *.{  .*.,.< 9.$.      ",
"      $.L -.} R { ' { #.*.>.$.[ K K >.[ [ L B v M ~ #.>.9.0.9.9.L / O.O.O.9.9.f.9.] >.!.~.9.[ #.f.m.,.w.{ Q *.P w.>.3 %.Y.      ",
"      L.4 } } n S A ) ) +.>.#.~ M B P #.*.#.>.:.$.O.>.[ [ #./ #.1.[ >.9.1.0.9.$.[ Y 9.K ~ [ >.>.,.,.9.J w.J Z { ,.>.[ Y         ",
"        , H ' Q Q { J ' [ *.>.[ #.#.:.#.2.f.>.:.>.1.9.>.1.>.1.1.9.>.1.0.#./ ^ $.m >.>.g c v #.9.,.y.{ P w.;.,.*.,.b c.N         ",
"        B W ' ' ' { *.H ' *.+.2.2.>.2.>.>.#.[ :.%.1.$.1.>.0.1.1.9.1.1.0.1.>.>.1.>.f.>.9.0.9.>.2.2.,.J G ) ..6.,.,.e 0.G.        ",
"          s s ) z P G ..) ` *.:.:.2.2.$.:.1.$.$.%.:.%.$.1.1.>.%.1.>.>.>.1.9.1.1.9.>.:.>.f.,.9.,.,.-.) ,...b { ,.*.#.B           ",
"          v ` -.' ) Q { H ` *.,.2.1.>.1.9.:.+.$.$.%.1.+.%.O.$.%.1.1.1.O.%.$.>.>.>.9.2.2.#.,.9.,.>. .-.{ <.,.,.>.e c.O.          ",
"            b J ) _ ) x ' P *.*.>.2.2.3.3.#.O.$.$.>.$.:.+.%.$.1.9.0.1.$.>.$.%.1.:.:.1.2.>.,.,.>.-.U x { b _ ,.L #.L             ",
"            n Q ;._ G z n G H #.[ 2.>.$.>.>.>.$.>.>.$.$.$.%.$.:.8.1.1.1.9.1.1.1.3.:.9.$.9.>.>.*.-.-.P *.w.,.,.t f.~             ",
"              5 J  .b  .P P ' #.[ #.+.:.2.$.$.:.1.:.>.+.1.$.%.%.1.&.&.1.1.9.1.1.>.0.>.2.:.>.P ~ ) ;.F Q >.w.k 9.9               ",
"              :.s Q { y J A G P B +.*.#.:.:.2.>.:.1.:.1.>.1.>.0.1.1.1.8.:.9.0.3.3.2.#.*.2.,.) -.)  .{  .,.) *.c c.              ",
"                B L P ' A ..! _ P [ *.*.:.+.#.2.+.$.2.>.+.0.1.1.1.1.1.9.:.3.2.1.2.*.,.-...;._ A l A A 7.*.B B V                 ",
"                  9 ~ } { 2 ..X.U ) *.*.[ ,.:.#.:.2.:.+.1.9.$.1.1.>.$.>.2.>.2.:.>.>...,.X.S ! =.S <.w.>.B [ 0                   ",
"                    < L *...Q Q Q { *.' ,.[ { { *.{ *.*.>.[ *.*.#.9.*.2.,.*.>.y.*.{ ,._ ' X.r ' <.,.-.b [ 7                     ",
"                      3 ) n { { ) ) P { ) W #.) ,.Q ) } ` >.} -.*.*.-.,.#.F >.*.G P Q A x D 7.;.7.*.B ~ -                       ",
"                        9 L L *.*.{ A z ) ..) G b { ) ' ' U ..Q ' P ,...-...J ,...J z ) ' A ;.,.~ [ c >                         ",
"                          7 t ~ ,.-.6.,.x ..x R Q J | u d | ! Q A _  ...7.G x J 7.Q *...r.-.) F P.< p                           ",
"                            Y * ` E ,.` ` { x Q P Q _ ! 6 X.! _ Z d <.=.7.G { ) *.H ,.,.6.b *.~ # (                             ",
"                                ; 3 K g F H { *.J ) S Q J I | ! Q Q ;.=...,.k *.-.2.j.` ` w.= <                                 ",
"                                  #.* : L g ~ w.*.,.{  .J G  .i Z <.*.w.4.,.,.:.2.K +.>.: $ 1.                                  ",
"                                      1.- * V ~ K T ) ,.<.*.,.-.,.4.I.] +.+.[ 1.0.Y * & $.                                      ",
"                                            m - @ 8 ~ ] ] +.] +.] +.:.1.0.T ; X @ j                                             ",
"                                                  F.Y < * % O o o + . O % p 1.                                                  ",
"                                                                                                                                ",
"                                                                                                                                ",
"                                                                                                                                ",
"                                                                                                                                "
};
