/* XPM */
static char *aij7x_gi31q[] = {
/* columns rows colors chars-per-pixel */
"64 64 156 2 ",
"   c None",
".  c #3C3C3A",
"X  c #4D4946",
"o  c #4E4E4B",
"O  c #534F4B",
"+  c #53514E",
"@  c #5A534F",
"#  c #565553",
"$  c #595653",
"%  c #565854",
"&  c #5B5956",
"*  c #5D5D5A",
"=  c #615B57",
"-  c #615E5B",
";  c #5F605D",
":  c #63615E",
">  c #6A625E",
",  c #656462",
"<  c #696663",
"1  c #676864",
"2  c #6B6966",
"3  c #6D6C69",
"4  c #706B67",
"5  c #716E6B",
"6  c #7A6F6B",
"7  c #6F706B",
"8  c #73716D",
"9  c #79726E",
"0  c #757371",
"q  c #7A7673",
"w  c #777873",
"e  c #7B7976",
"r  c #7D7C79",
"t  c #817875",
"y  c #817D7B",
"u  c #7E807D",
"i  c #83817D",
"p  c #88837F",
"a  c #858381",
"s  c #898683",
"d  c #8C8986",
"f  c #8E8C8A",
"g  c #918A86",
"h  c #928E8B",
"j  c #94918E",
"k  c #99938E",
"l  c #959492",
"z  c #9A9693",
"x  c #9B9996",
"c  c #9D9C9A",
"v  c #A19A96",
"b  c #A29D9A",
"n  c #9FA19E",
"m  c #A5A19E",
"M  c #A9A19C",
"N  c #A7A6A4",
"B  c #A7A5A4",
"V  c #A5A4A2",
"C  c #AAA6A3",
"Z  c #A8A7A4",
"A  c #AAA7A6",
"S  c #AAA6A3",
"D  c #ACAAA7",
"F  c #ABA9A6",
"G  c #AFABA9",
"H  c #AEAFAA",
"J  c #ADABA9",
"K  c #B3ABA6",
"L  c #B1ADAA",
"P  c #B2AEAD",
"I  c #B3AFAE",
"U  c #B3ADAB",
"Y  c #BAAFAB",
"T  c #B4B0AD",
"R  c #B4B1AE",
"E  c #BAB2AE",
"W  c #B5B2B1",
"Q  c #B5B3B2",
"!  c #B8B3B2",
"~  c #B8B6B4",
"^  c #BBB5B3",
"/  c #BBB8B7",
"(  c #BCB9B6",
")  c #BCB9B8",
"_  c #BCBBB9",
"`  c #BFBBB8",
"'  c #BCBEB8",
"]  c #BEBCBB",
"[  c #C1B6B3",
"{  c #C2BAB7",
"}  c #C0BCB9",
"|  c #C3BDBA",
" . c #C0C1BC",
".. c #C1C0BE",
"X. c #C3C0BF",
"o. c #C4C1BF",
"O. c #C5C1BE",
"+. c #CAC3BE",
"@. c #C5C1C0",
"#. c #C5C2C1",
"$. c #C5C4C1",
"%. c #C6C4C2",
"&. c #C5C5C4",
"*. c #C7C6C5",
"=. c #C5C4C2",
"-. c #CBC6C3",
";. c #C6C8C2",
":. c #C6C8C5",
">. c #CBC9C4",
",. c #CBC9C7",
"<. c #CBC8C6",
"1. c #CDCAC9",
"2. c #CDCCC9",
"3. c #D1CAC6",
"4. c #D3CECC",
"5. c #D8CECB",
"6. c #D2D2CC",
"7. c #D2D0CF",
"8. c #D2D2CF",
"9. c #D5D0CD",
"0. c #DAD2CD",
"q. c #D1D1D0",
"w. c #D4D3D0",
"e. c #D5D3D2",
"r. c #D4D3D1",
"t. c #D9D7D7",
"y. c #DDD6D3",
"u. c #D7D8D3",
"i. c #D8D8D6",
"p. c #DAD8D6",
"a. c #DCD9D7",
"s. c #DDD9D6",
"d. c #DBDBDA",
"f. c #DCDCDA",
"g. c #DFDFDD",
"h. c #DEDDDA",
"j. c #E1DBD6",
"k. c #E1DDDB",
"l. c #E8DDDA",
"z. c #E1E0DD",
"x. c #E4E0DE",
"c. c #E4E1DE",
"v. c #ECE4DF",
"b. c #E6E4E0",
"n. c #E4E4E2",
"m. c #E4E3E1",
"M. c #EAE3E0",
"N. c #ECEAE4",
"B. c #ECEAEA",
"V. c #F1E9E5",
"C. c #F1EEEB",
"Z. c #F5F2EE",
"A. c #F6F4F2",
"S. c #F8F7F5",
"D. c #FAF9F7",
"F. c #FAF9F8",
/* pixels */
"                                                                                                                                ",
"                                                                                                                                ",
"                                                                                                                                ",
"                                                                                                                                ",
"                                                        f.e.t.d.r.i.g.                                                          ",
"                                                ` P B c f y e e r e r d V &.b.                                                  ",
"                                          ,.V h e q e l W #.#.X.X.` ^ c 0 2 w e B 7.                                            ",
"                                      P c 0 q z 1.G y 2 3 3 2 3 3 : , , * q c B 8 0 a &.                                        ",
"                                  ! c q 0 #.G 2 5 5 3 3 3 2 2 2 / 2 2 - , 3 * # * z h 5 a 7.                                    ",
"                              x.c a 8 o.s : 3 3 , 5 5 5 3 8 8 3 a.8 2 2 3 - 3 , - & # d d , f                                   ",
"                            P h q b A , 0 0 8 0 0 2 , 5 2 , 2 e %.q , , 2 , e 8 8 0 : * o B 2 0                                 ",
"                          x s 3 %.5 0 8 8 2 1 , 2 1 3 2 , : 2 2 A a < : , 2 < < 0 5 5 3 < o 8 l 3 ;.                            ",
"                        d i s X.3 3 2 0 : 2 3 2 , * 3 * , * 1 2 B 3 * : 2 5 : 8 3 2 3 3 3 3 & o m 8 H                           ",
"                      i a s L 2 0 3 8 : 2 2 1 , 1 & , & : # * e e.: : * - : : : 3 5 3 3 8 8 3 , * x 7 ]                         ",
"                    D x f T 8 5 0 2 * 1 2 * , 1 & , 1 * * * * r z.- - # $ * 2 - : - * : 2 : < 3 * & l 3 X.                      ",
"                  a.i h ` 5 2 8 3 2 0 : , 2 1 , 1 , * 1 * & & c b.3 : : * * * : : - 3 & : 3 , 3 2 : * j 0 7.                    ",
"                  8 s ,.5 8 2 3 2 1 1 1 1 2 1 * , : , : , * & b | b Z 2 * * % & % * & * : * * 2 : 2 > : i e                     ",
"                s i ^ i 0 3 e 3 0 3 2 1 , 1 1 , & , - * , : - j k.e b a.2 + # * % & & * 1 1 : : , 5 2 * > 8 k                   ",
"                0 S E 8 e 3 0 2 1 2 8 3 1 , 1 2 , * , * : & & i y.z z h s - , * % * & & * * : , - < 2 , : 0 y -.                ",
"              : h T q e 8 8 3 8 0 3 1 , 1 1 1 2 , 2 , 2 , * 8 Z 4.E y < & % * , * * & % & * : : 2 : < < - & < i 4.              ",
"              i S K e 8 3 8 3 3 2 3 2 3 7 3 2 2 3 , 1 2 & - f , b -.^ s s & - # % % & & & & * : , - : 5 2 - 2 5 `               ",
"            i z { i 0 , 3 3 8 2 2 0 3 2 2 2 2 3 2 , , , l W A ^ | V.-.o.: - - * : * * & % % * & - < : < 2 < & 2 q >.            ",
"            0 v >.t 0 0 3 3 3 1 2 8 3 3 e e 2 * : 0 %.: P ] | | { ^ -.M.L 2 , & * * * % # : < & * < < 2 2 2 - 2 e ^             ",
"          P y | i s 8 8 3 3 3 8 c A c f l D #.d.| ! ^ 8 * & , 8 < 6 @ s l o.P q c / #.c 2 & - * , , , 5 2 < 2 % < h             ",
"          2 d y.8 e 0 5 2 3 a n r 3 0 2 , 8 8 2 2 5 e a.| v b z k b K { < 3 2 l i 0 2 y *.A & - & : * < - 5 : * 2 y `           ",
"          2 m -.0 4 8 q 8 e d d a e a f d d y 3 2 < 0 f $ 4 8 9 < 9 b 3.a a 2 * & % * * $ z Z * * : & , : 5 : - & 5 R           ",
"          5 | F 5 2 : , 8 0 3 2 3 2 1 , # * i j z < 5 y - 5 5 4 - 9 K M z : - * & & & : & * ^ - , , : 2 2 8 2 2 & 2 D           ",
"        / e 9.s 8 0 3 2 8 8 1 1 8 1 * 1 1 , 2 $ s ^ 9 9 @ < 6 < 6 6 [ y.: & < * & * # & $ - 2 e , , : 2 2 3 2 5 - - c           ",
"        f y a.0 5 2 3 3 , 1 3 , * , 1 2 , * , * $ < h Z < e 5 e > 9 [ | 2 : , & : & * * & * 5 g * * : 2 < 2 4 0 * O s e.        ",
"        0 y k.0 5 4 3 3 2 2 2 1 , 1 1 , : : , : : $ 2 b 6 v ^ K [ { j.C : < : & & & & : * : t s - , 2 3 , < 3 0 - X e ]         ",
"        2 d a.0 3 5 2 , 3 1 * , , ; , , : : - : > & - K g ( +.^ Y E l.z - , , : : # * : - < ` - * , 2 2 , : 2 5 , X 0 D         ",
"        & z a.8 5 , 2 3 1 , , , , * , , , , & : : > & : z - > < 6 t 5.z 2 - * : , : * & 8 b 0 - * , 2 2 < < 5 8 3 O 0 b         ",
"        # x k.5 2 5 , : * : 1 * , , 1 , * * * * * : : # h z ^ ^ | +.y.t < > - < * : a x x < * < , , e < 2 8 8 e < X e V         ",
"        - d x.5 2 3 , : * * , * * * , , * * * & & % * # h z U b ^ K v.< = - 2 = b c f 2 : # ; > 2 2 8 < , 2 3 0 < + e V         ",
"        5 i x.0 2 2 : - * * ; * ; * * * & * * * & & % & y < < 9 q g v.9 & : < L h 5 3 : * : 8 * , 2 2 3 < 2 5 e 2 @ y Z         ",
"        s s k.0 2 , * * * * * * * & & & % % & % % & # - y S { { K { l.e - = e z v < : 3 , * 7 , : , : 8 3 3 8 0 - $ s ^         ",
"        R y k.q 3 , : * * * * , * & * : * & % # # : # O d L { 3.5.0.j.g = p 0 D < : , : , * : 1 : , * 5 8 5 8 8 < > m x.        ",
"        m.3 e.f 5 < , : : , * , 1 * * * * & * * * o * % t 8 y s g y 3.K & 4 b Z & 2 3 - * , < 1 , 2 : 3 8 8 0 8 i q m           ",
"          , P ^ 5 < , * * : & * , & & & % % & & % # * # x L ! ` b x j.4.& s k 5 - - < < - < 3 * < 2 2 < 5 0 y 0 e e j           ",
"          3 s k.5 , , * & * & & , * * 1 , * & % # + # , h L ! %.-.+.j.x.$ 4 m 4 - - : : : , 2 2 , 2 5 , 4 0 e 8 % r l           ",
"          V 0 k.0 2 < : * * & * * % % * & # % & * + # z 0 5 t s h z h C.5 d z - & = < - < < : 2 2 3 2 2 < 8 5 d e j f.          ",
"            3 | D 3 : & : # : : , * & & & & % * * % 3 r & 2 , < 2 & 6 ^ T = E - = > & : & 2 3 , , 3 8 0 2 e 4 d h j             ",
"            5 r C.2 2 , : - # , * * & % * & # * # * d , , * - < - 2 : k C.z Z - : @ - < < 2 3 2 0 5 < 0 4 5 e - j x             ",
"            4.5 4.b 5 - * * * * , , * * * * & * * , V 2 : : - < : > < < | k m > = < < : , & 3 2 2 2 5 3 y 5 Z d b               ",
"              8 d Z.2 : - - * * & 1 & & 1 * % % % l 7 : * : : : : * : 2 y V.k - - $ - < : 5 , , - 5 2 0 0 0 - d l               ",
"              *.: 1.` 2 - : # - * * & & # & , * n :.: : 2 * , : - 8 - - 6 h V.M - > - - : : * , , 5 2 0 3 m z j                 ",
"                r 8 A.h : & : : , u e & * & # u V 3 3 ; * : , , : : - - : 9 b V.t < O : : e 1.e - 5 0 q Z 0 a P                 ",
"                  8 x Z.e , & & , , ~ B # % * & o o , , 8 : : , * , : < < - 6 g - - : : , 8 r H 5 5 5 s 5 s A                   ",
"                  %.3 -.b.0 % & , 0 e : % ; & * & . o % 2 1 3 8 2 5 * : + # c 0 , & r m : e l y e 5 t f a A                     ",
"                    A 3 f.a.8 2 1 , o * * & # , & : r e * % # * , * 2 0 f d 3 : 8 i i a & : e z 8 e b j b `                     ",
"                      c 2 N.u.7 1 * , 0 r * * c * * & * 3 & * * * : : * , : x - < 8 j : : 3 < e e m h z T                       ",
"                        V w N.b.e , + e l # & a & * : l & * & : 2 & e 3 & : s * & * l e : : 2 3 l j f H                         ",
"                          c 8 2.A.c , 1 & - : a * * l e & * & % # - r A & * x l : 2 : x : : h i f x `                           ",
"                            ! a V F.r.3 & * : 3 & * s c # , G ! B - & s & 3 8 8 5 < - 2 5 R e d V 4.                            ",
"                              ,.b 5 z.F./ 2 3 , * & ^ 3 * % f a x , - 3 2 - 3 W z - 3 A f l f P                                 ",
"                                  B f d b.D.,.s - 0 d W * * , - , * - 5 * * 3 3 y ! ^ A a R ^                                   ",
"                                    z.B a r a.S.C.e.B r 2 1 2 1 , : 2 3 5 h ^ #.*.G e b `                                       ",
"                                        m.A c e l ] B.F.C.n.m.z.g.e.r.r.,.` m r a B ]                                           ",
"                                              4.W D l e q s x c V l a r y x W ] f.                                              ",
"                                                      g.=.) ^ ~ W ~ %.e.m.                                                      ",
"                                                                                                                                ",
"                                                                                                                                ",
"                                                                                                                                ",
"                                                                                                                                "
};
