/* XPM */
static char *ax3qf_9wipu[] = {
/* columns rows colors chars-per-pixel */
"64 64 156 2 ",
"   c None",
".  c #414141",
"X  c gray26",
"o  c gray27",
"O  c #484848",
"+  c #494949",
"@  c gray29",
"#  c #4B4B4B",
"$  c #4C4C4C",
"%  c gray30",
"&  c gray31",
"*  c #505050",
"=  c #515151",
"-  c gray32",
";  c #535353",
":  c gray33",
">  c #555555",
",  c #565656",
"<  c #585858",
"1  c #5A5A5A",
"2  c #5B5B5B",
"3  c gray36",
"4  c gray37",
"5  c #5F5F5F",
"6  c #606060",
"7  c gray39",
"8  c #646464",
"9  c #656565",
"0  c #686868",
"q  c DimGray",
"w  c #6A6A6A",
"e  c #6C6C6C",
"r  c #6D6D6D",
"t  c gray43",
"y  c #6F6F6F",
"u  c gray44",
"i  c #717171",
"p  c #727272",
"a  c gray45",
"s  c #747474",
"d  c gray46",
"f  c #767676",
"g  c #777777",
"h  c gray47",
"j  c #797979",
"k  c gray48",
"l  c #7B7B7B",
"z  c #7C7C7C",
"x  c gray49",
"c  c #7E7E7E",
"v  c gray50",
"b  c #808080",
"n  c #818181",
"m  c gray51",
"M  c #838383",
"N  c #848484",
"B  c gray52",
"V  c #868686",
"C  c gray53",
"Z  c #888888",
"A  c #898989",
"S  c gray54",
"D  c #8B8B8B",
"F  c gray55",
"G  c #8D8D8D",
"H  c #8E8E8E",
"J  c gray56",
"K  c gray57",
"L  c #929292",
"P  c #939393",
"I  c gray58",
"U  c #959595",
"Y  c gray59",
"T  c #979797",
"R  c #989898",
"E  c gray60",
"W  c #9A9A9A",
"Q  c #9B9B9B",
"!  c #9D9D9D",
"~  c gray62",
"^  c #A0A0A0",
"/  c gray63",
"(  c #A2A2A2",
")  c gray64",
"_  c #A4A4A4",
"`  c #A5A5A5",
"'  c gray65",
"]  c #A7A7A7",
"[  c gray66",
"{  c #A9A9A9",
"}  c #AAAAAA",
"|  c gray67",
" . c #ACACAC",
".. c gray68",
"X. c #AEAEAE",
"o. c gray69",
"O. c #B1B1B1",
"+. c #B2B2B2",
"@. c gray70",
"#. c #B4B4B4",
"$. c gray71",
"%. c #B6B6B6",
"&. c #B7B7B7",
"*. c gray72",
"=. c #B9B9B9",
"-. c gray73",
";. c #BBBBBB",
":. c #BCBCBC",
">. c gray74",
",. c gray",
"<. c gray75",
"1. c #C0C0C0",
"2. c #C1C1C1",
"3. c gray76",
"4. c #C3C3C3",
"5. c gray77",
"6. c #C5C5C5",
"7. c #C6C6C6",
"8. c gray78",
"9. c #C8C8C8",
"0. c gray79",
"q. c #CACACA",
"w. c #CBCBCB",
"e. c gray80",
"r. c #CDCDCD",
"t. c #CECECE",
"y. c gray81",
"u. c #D0D0D0",
"i. c gray82",
"p. c #D2D2D2",
"a. c LightGray",
"s. c gray83",
"d. c #D5D5D5",
"f. c gray84",
"g. c #D7D7D7",
"h. c #D8D8D8",
"j. c gray85",
"k. c #DADADA",
"l. c gray86",
"z. c gainsboro",
"x. c #DDDDDD",
"c. c gray87",
"v. c #DFDFDF",
"b. c gray88",
"n. c #E1E1E1",
"m. c #E2E2E2",
"M. c #E4E4E4",
"N. c gray90",
"B. c #E6E6E6",
"V. c gray91",
"C. c #E9E9E9",
"Z. c #EAEAEA",
"A. c gray92",
"S. c #ECECEC",
"D. c gray93",
"F. c #F1F1F1",
/* pixels */
"                                                                                                                                ",
"                                                          m.a.9.>.6.6.6.9.c.                                                    ",
"                                                          4.9.6.>.9.t.6.4.6.m.                                                  ",
"                                                        t...6.t.4.6.t.t.6.%.6.                                                  ",
"                                                        %.;.6.6.4.4.9.t.9.>.6.                                                  ",
"                                                        ..t.9.6.4.4.9.6.6.>.>.d.                                                ",
"                                                        ] 6.6.6.4.>.9.9.6.4.;.4.                                                ",
"                                                      c.+.6.t.t.6.;.6.9.6.4.%.4.                                                ",
"                                                      >.;.6.t.6.4.4.4.4.6.4.;.+.                                                ",
"                                                      +.>.9.t.6.4.4.>.>.>.;.;.;.                                                ",
"                                                      ~ 4.9.9.6.>.>.>.>.>.;.%.+.k.                                              ",
"                                                      G 6.9.9.6.4.4.4.>.>.>.;.+.>.                                              ",
"                                                      b 9.9.9.9.6.t.t.4.>.6.9.4.]                                               ",
"                                                      b 9.9.6.9.4.d.k.t.4.6.9.4.Y                                               ",
"                                                      v 6.9.6.9.4.t.d.t.6.4.>.%.Y                                               ",
"                                                    m.b 6.9.9.6.6.4.4.>.>.4.>.%.Y                                               ",
"                                                    6.G 9.6.9.6.4.N.d.6.>.>.6.a.~                                               ",
"                                                    ;.Y 9.9.9.6.6.V.c.a.9.6.6.t.E                                               ",
"                                                    ( ( 9.9.9.9.4.c.t.6.9.9.4.;.~ N.                                            ",
"                                                    G ..9.6.6.6.6.V.k.6.>.>.>.6.>.N.                                            ",
"                                                    v %.6.6.6.9.4.D.m.a.6.6.6.6.+.9.                                            ",
"                                                    f ;.9.6.9.9.9.V.k.t.t.a.9.4...+.                                            ",
"                                                    f >.9.6.9.6.6.D.k.>.+.%.;.>.9.%.                                            ",
"                                                    k >.t.6.9.6.6.F.V.c.d.d.t.6.+.~                                             ",
"                                                    k 4.9.9.6.6.9.V.c.6.9.t.t.9.6.E                                             ",
"                                                    v 4.9.9.6.6.>.V.a.[ ..] E ( ..G                                             ",
"                                                    D 6.6.9.6.6.6.N.V.c.d.k.k.9.4.b                                             ",
"                                                    E 6.9.9.6.6.4.N.d.;.;.;.%.;.9.b                                             ",
"                                                    ] 6.9.9.6.6.6.m.a.>.>.>.+...] w                                             ",
"                                                    %.6.9.9.6.6.6.m.D.c.9.6.a.9.t.k                                             ",
"                                                    4.9.9.9.6.6.6.t.] D L Y D N D 6                                             ",
"                                                    9.9.9.6.6.6.4.k.m.k.a.t.t.4.%.f                                             ",
"                                                    a.9.6.9.9.6.6.9.>.[ [ [ +.[ %.u                                             ",
"                                                    d.9.6.6.6.6.6.9.%.E ~ Y G D k 8                                             ",
"                                                    k.9.9.6.6.6.4.t.m.k.a.9.a.a.>.r                                             ",
"                                                    m.t.9.6.6.6.6.[ k 4 f k 8 4 8 8                                             ",
"                                                    N.t.9.6.6.6.4.;.t.9.>.%.%.+.Y r                                             ",
"                                                    V.9.9.6.6.6.9.] Y G E ~ Y E N w                                             ",
"                                                    V.9.9.6.6.6.4.D N v u u r 4 = w                                             ",
"                                                    V.9.9.6.6.6.4.] >.t.6.6.4.>.E v                                             ",
"                                                    V.9.6.9.4.6.6.r = 2 4 6 6 : % v                                             ",
"                                                    N.9.6.9.4.6.>.b N G D D b u 4 G                                             ",
"                                                    N.9.6.9.6.6.6.v G ( ] [ ( E 8 (                                             ",
"                                                    m.9.6.6.6.6.6.2 % + + = + = + ~                                             ",
"                                                    c.6.6.6.6.6.>.w N G Y E N k = ;.                                            ",
"                                                    k.6.6.6.6.4.>.6 f b N D b v X ;.                                            ",
"                                                    d.4.6.4.6.4.4.% % = = + + + o                                               ",
"                                                    d.4.6.4.6.4.%.2 u b D b v w o                                               ",
"                                                    c.;.4.6.6.6.%.+ u b L D b w X                                               ",
"                                                    N.+.4.6.6.6.%.= 4 : 2 = : 4 =                                               ",
"                                                      ] 4.6.6.6.+.: 6 6 w 6 4 : 4                                               ",
"                                                      E 4.6.6.6.~ % r N G D f + r                                               ",
"                                                      E 4.6.6.6.L : r v k k r : N                                               ",
"                                                      ( >.6.6.6.L u u r r w w f (                                               ",
"                                                      [ >.6.6.6.L b u u u u u N >.                                              ",
"                                                      +.>.6.4.4.E v f k f f k D                                                 ",
"                                                      4...9.6.4.E k f v v k k G                                                 ",
"                                                      d.+.>.6.4.E v k v k f b (                                                 ",
"                                                        ..>.6.>.] N v b b b L %.                                                ",
"                                                        [ 4.9.;.] N v b b D ~                                                   ",
"                                                        +.;.6.;.E v f u f N ]                                                   ",
"                                                        a...4.>.( b f u v E >.                                                  ",
"                                                          >.4.>.E k u u G +.                                                    ",
"                                                          c.9.;.( L Y ~ %.                                                      "
};
