/* XPM */
static char *aigjv_k2eya[] = {
/* columns rows colors chars-per-pixel */
"64 64 222 2 ",
"   c None",
".  c #000000",
"X  c #0C0C0C",
"o  c #170F09",
"O  c #1D1107",
"+  c #17110F",
"@  c #141414",
"#  c #1D1915",
"$  c #1B1B1B",
"%  c #1A1514",
"&  c #251509",
"*  c #2C190A",
"=  c #281608",
"-  c #241E1C",
";  c #2A1D1B",
":  c #271B13",
">  c #361D0A",
",  c #3D210C",
"<  c #2C211E",
"1  c #2C2017",
"2  c #3B2414",
"3  c #32241B",
"4  c #372619",
"5  c #232323",
"6  c #2B2B2B",
"7  c #2C2522",
"8  c #3D2B24",
"9  c #342B2A",
"0  c #3C2E2B",
"q  c #352824",
"w  c #3D312E",
"e  c #393332",
"r  c #48270E",
"t  c #4C2D14",
"y  c #432C1A",
"u  c #532F14",
"i  c #523117",
"p  c #54341A",
"a  c #5B3517",
"s  c #4B321E",
"d  c #633513",
"f  c #6C3C17",
"g  c #663A18",
"h  c #723E18",
"j  c #422E25",
"k  c #433121",
"l  c #4A3424",
"z  c #44342A",
"x  c #4D392D",
"c  c #543923",
"v  c #5D3D24",
"b  c #523827",
"n  c #4C3A34",
"m  c #4B3E3B",
"M  c #473936",
"N  c #553C36",
"B  c #533D39",
"V  c #593E39",
"C  c #6D411C",
"Z  c #7C461B",
"A  c #7F491E",
"S  c #73421A",
"D  c #4A413E",
"F  c #5D4430",
"G  c #5C423B",
"H  c #59453B",
"J  c #674529",
"K  c #7B4E2A",
"L  c #754B29",
"P  c #7E512E",
"I  c #6D4732",
"U  c #6E4A34",
"Y  c #634B3E",
"T  c #624437",
"R  c #724B33",
"E  c #764E38",
"W  c #775030",
"Q  c #775239",
"!  c #4F4441",
"~  c #5D4943",
"^  c #584845",
"/  c #664C45",
"(  c #694D47",
")  c #6C534D",
"_  c #755245",
"`  c #7A5945",
"'  c #75524A",
"]  c #79574A",
"[  c #6E5651",
"{  c #715751",
"}  c #725953",
"|  c #7B5B53",
" . c #7E5F5A",
".. c #724F47",
"X. c #824B1E",
"o. c #8A4D1E",
"O. c #934E1B",
"+. c #8F511F",
"@. c #96511D",
"#. c #9A541E",
"$. c #844D22",
"%. c #884F21",
"&. c #814F2A",
"*. c #8B5224",
"=. c #83542E",
"-. c #8A542A",
";. c #8E592E",
":. c #875023",
">. c #945523",
",. c #9D5621",
"<. c #9D5923",
"1. c #945B2D",
"2. c #9B5D2C",
"3. c #925728",
"4. c #8B5930",
"5. c #8C5D3E",
"6. c #845434",
"7. c #945D34",
"8. c #A45B23",
"9. c #A95F25",
"0. c #A35F2A",
"q. c #9F653A",
"w. c #AC6126",
"e. c #A3622D",
"r. c #AC642B",
"t. c #AE682E",
"y. c #B26529",
"u. c #B6692A",
"i. c #BC6D2D",
"p. c #B06427",
"a. c #BF702F",
"s. c #A26331",
"d. c #AF6A39",
"f. c #B56A32",
"g. c #BA6D34",
"h. c #B56C3A",
"j. c #B76C37",
"k. c #BF7134",
"l. c #BD713B",
"z. c #C07133",
"x. c #C2743C",
"c. c #875C47",
"v. c #835E53",
"b. c #8C614A",
"n. c #966547",
"m. c #8C6352",
"M. c #8C665D",
"N. c #8D685C",
"B. c #84635B",
"V. c #91685A",
"C. c #97695A",
"Z. c #B97549",
"A. c #A36C56",
"S. c #A56F59",
"D. c #AB725B",
"F. c #A7715A",
"G. c #BE7A55",
"H. c #B97A5D",
"J. c #B57858",
"K. c #A96F4A",
"L. c #956B62",
"P. c #9C6D63",
"I. c #9A7067",
"U. c #8D6C63",
"Y. c #A5756B",
"T. c #A8766C",
"R. c #A7796E",
"E. c #AA796F",
"W. c #A77463",
"Q. c #B57A61",
"!. c #BC7E65",
"~. c #AE7C72",
"^. c #B27F75",
"/. c #C57B4D",
"(. c #C87D4E",
"). c #C47844",
"_. c #C57C52",
"`. c #C97F53",
"'. c #C37F5C",
"]. c #C37F61",
"[. c #BF8169",
"{. c #BA8376",
"}. c #CB8156",
"|. c #CB825D",
" X c #C6815E",
".X c #C58263",
"XX c #CC8562",
"oX c #C3846D",
"OX c #CE896B",
"+X c #CC876A",
"@X c #D18A6B",
"#X c #C58672",
"$X c #CB8D7E",
"%X c #C68A7A",
"&X c #D38E75",
"*X c #D08E7C",
"=X c #D4917D",
"-X c #D49173",
";X c #B58A82",
":X c #BE9A92",
">X c #BE9589",
",X c #CA8E81",
"<X c #CE9481",
"1X c #D69483",
"2X c #D89585",
"3X c #DA9A8C",
"4X c #D69887",
"5X c #C89E95",
"6X c #DBA385",
"7X c #C5A29B",
"8X c #CBA49B",
"9X c #DDA593",
"0X c #E0A888",
"qX c #E3AE94",
"wX c #E1A79A",
"eX c #E4AC9D",
"rX c #E6B39C",
"tX c #E4B196",
"yX c #E4AEA3",
"uX c #E7B2A5",
"iX c #E8B5AA",
"pX c #E8B5A9",
/* pixels */
"  oX#X#X#XoXoX[.!.!.!.!.[.Q.] 6 6 5 5 5 5 5 5 5 5 5 5 5 5 5 5 L.[.!.!.[.oXoX#X#X#XoXoX!.!.!.C.m ,X#X#X#X#XoX[.!.!.!.!.[.oXoXC.D ",
"`.}.`.`.`.`._._._.`._._._.Z.` e 6 $ @ @ @ @ @ @ @ @ @ @ @ @ @ I.OX`._._.`.`.`._._.`._._._._.K.D 4X}.`.`.`.`._._._._.`._.`.`.n.n ",
"i.u.w.w.p.p.8.8.w.u.9.p.w.0.W 6 $ . . . . . . . . . . . . . . L.}.i.w.9.u.w.p.8.9.p.w.w.w.w.e.D 1Xk.p.y.w.p.w.8.8.w.u.8.p.w.;.y ",
"i.9.#.,.8.8.@.O.8.9.@.8.,.<.W 6 @ . . . . . . . . . . . . . . L.}.p.#.@.8.8.8.O.,.8.#.,.8.8.e.D 1Xg.8.#.8.9.,.O.@.9.9.O.8.8.-.y ",
"i.8.@.#.8.8.#.O.8.w.#.8.8.<.W 6 @ . . . . . . . . . . . . . . L.`.9.@.@.@.8.8.@.#.8.,.8.8.8.s.D 1Xg.#.@.#.8.8.@.@.8.w.#.8.8.-.y ",
"i.8.8.9.8.9.w.@.@.,.w.8.w.r.R 6 @ . . . . . . . . . . . . . . C.`.w.8.w.#.w.8.8.#.#.w.9.9.u.s.D =Xf.8.8.9.9.9.9.@.@.8.p.8.p.1.k ",
"i.i.i.i.i.i.i.u.u.u.i.i.i.t.J @ . . . . . . . . . . . . . . . =.z.i.i.i.u.i.i.i.i.u.i.i.i.i.e.n x.i.i.i.i.i.i.i.u.u.u.i.i.i.1.k ",
"& & O O : 4 1 z = & & & = 3 7 @ @ . . . . . . . . . . . . . . O = = & & & : q 3 1 & & & & 4 z @ z & O O O 3 4 3 z & & & & : < + ",
"Y.T.T.T.E.L.^ R.Y.Y.Y.Y.T.~.I.~ @ . . . . . . . . . . . . . . ..Y.Y.Y.T.T.Y. .{ Y.T.T.Y.Y.E.~.Y.^.T.T.T.T.~. .~ ~.Y.Y.T.T.E.~.' ",
"/.(.(.(.(.K./ $X_.(.(.(.(.(.K.U @ . . . . . . . . . . . . . . 6./.(.(.(.(./.b.M..X`.(.(.(.(.(.(.(.(.(.(.(.(.c.} =X(.(.(.(.(.(.6.",
"8.p.p.p.p.2.Y $Xz.i.w.u.y.p.2.v @ . . . . . . . . . . . . . . f 8.p.u.w.u.w.4.M.G.z.p.p.y.w.i.8.8.w.p.y.w.y.=.} &Xi.i.9.u.p.p.S ",
"8.8.,.#.8.1.Y $Xz.w.#.8.9.8.*.c @ . . . . . . . . . . . . . . d ,.9.8.#.8.,.4.M.G.f.,.,.9.8.8.O.@.8.8.8.#.9.=.{ &Xi.9.@.8.9.8.g ",
"9.8.#.#.8.1.Y $Xz.#.O.O.8.8.%.c @ . . . . . . . . . . . . . . d ,.8.,.#.8.,.4.M.G.r.@.O.,.w.,.O.@.9.,.#.#.9.=.{ &Xu.O.O.@.8.8.d ",
"@.8.9.9.w.2.Y $Xz.#.,.#.,.9.3.c @ . . . . . . . . . . . . . . d O.8.w.8.w.8.4.M.G.r.,.#.#.8.w.,.O.#.9.w.9.p.=.) &Xi.@.8.@.8.9.f ",
"@.,.8.w.w.2.H !.u.,.w.8.8.w.3.v X . . . . . . . . . . . . . . g >.#.0.w.8.u.4.v.K.0.w.8.0.w.<.p.,.@.8.8.w.u.=./  Xp.,.p.,.w.w.C ",
"%.*.*.*.3.P z K $.$.$.$.$.;.K y . . . . . . . . . . . . . . . J -.$.$.$.:.*.R J $.*.%.$.$.=.;.$.7.*.*.*.*.1.J x ;.$.$.%.*.*.3.a ",
"V N N N G ( G V G G G G G ~ m $ @ . . . . . . . . . . . . . . H / G G G V G ( B N N V V G / ( - } V N N N / ( / { G G V V G B - ",
"G.G.G.G.G.G.G.G.G.G.G.G.G.J.` 6 @ . . . . . . . . . . . . . . M.oXG.G.G.G.G.G.G.G.G.G.G.G.G.A.M ,XG.G.G.G.G.G.G.'.G.G.G.G.G.n.z ",
"z.k.f.f.f.f.r.r.r.k.y.g.f.s.Q 6 @ . . . . . . . . . . . . . . L.}.x.g.t.g.r.g.r.r.g.f.f.g.f.s.D 2Xx.g.f.f.g.f.r.r.r.z.r.g.f.7.k ",
"i.w.,.8.w.8.#.#.w.9.#.8.8.<.W 6 @ . . . . . . . . . . . . . . L.`.p.8.,.9.w.8.@.8.9.,.8.8.8.s.D 1Xg.8.,.8.9.8.#.#.w.8.#.8.8.-.k ",
"u.8.O.@.8.8.@.O.8.w.#.8.8.<.R 6 @ . . . . . . . . . . . . . . C._.w.@.O.#.8.8.O.#.9.#.8.8.8.s.! =Xf.#.O.#.8.8.O.@.8.w.@.8.8.-.k ",
"u.8.#.,.8.9.8.@.@.8.8.8.9.0.R 6 @ . . . . . . . . . . . . . . V._.9.#.8.#.9.8.,.@.,.8.8.8.w.s.! =Xf.,.#.8.8.8.,.O.#.8.8.9.w.;.k ",
"i.p.p.p.p.p.u.8.8.8.u.w.y.r.I 5 X . . . . . . . . . . . . . . c.).p.w.u.w.u.w.p.8.8.p.p.w.i.s.D |.i.p.w.y.w.p.p.8.8.8.i.w.i.1.k ",
"%.%.%.%.*.3.*.1.%.%.%.%.*.&.c @ . . . . . . . . . . . . . . . a %.%.%.%.*.*.3.3.*.*.%.%.%.*.P 0 1.*.%.%.%.*.;.*.1.%.%.%.%.*.L 3 ",
"; ; ; ; q w - m < ; ; ; < 0 w 5 @ . . . . . . . . . . . . . . % ; ; ; ; ; q 9 9 9 < ; ; ; 9 m 7 m < ; ; ; 0 9 5 m ; ; ; ; q w - ",
"1X2X2X2X2X{.) ,X2X2X1X1X2X2X{.) @ . . . . . . . . . . . . . . m.1X1X1X2X2X1XI.U.,X2X2X2X1X1X2X1X2X2X2X2X2X2XL.} 4X2X2X2X2X2X2XN.",
"i.i.i.i.i.s.Y $Xz.i.i.i.i.i.r.J @ . . . . . . . . . . . . . . A i.i.i.i.i.i.4.M.G.x.i.i.i.i.i.i.i.i.i.i.i.i.4.{ &Xi.i.i.i.i.i.A ",
",.w.w.8.w.2.Y ,Xz.i.,.w.w.9.2.c @ . . . . . . . . . . . . . . d @.w.w.8.p.,.4.M.G.k.9.w.w.8.p.@.@.8.w.w.8.w.=.{ &Xi.u.#.p.9.9.f ",
"w.8.#.@.8.1.~ <Xz.,.O.#.8.8.%.c @ . . . . . . . . . . . . . . d 8.9.#.@.,.,.4.M.G.r.#.@.8.w.,.O.@.w.,.#.@.9.=.[ &Xi.#.O.#.8.,.d ",
",.8.8.8.9.1.~ 1Xz.#.#.@.,.8.>.c @ . . . . . . . . . . . . . . d @.8.8.8.8.8.4.M.G.0.#.@.#.9.8.#.O.,.8.8.8.w.=.[ &Xu.O.#.@.8.8.g ",
",.8.w.w.p.2.H OXk.8.w.8.9.w.<.v @ X X X X X X X X X X X X X . f ,.8.w.p.w.p.4.m.Z.w.w.9.8.p.w.p.,.8.w.w.w.u.=.) +Xi.,.p.8.w.w.h ",
"Z Z X.X.:.K z 5.*.A %.X.X.*.L s $ @ @ @ @ @ @ @ @ @ @ @ @ @ . g $.Z X.X.A *.L F &.X.X.X.X.*.-.*.-.Z A X.X.*.J n n.%.Z %.X.%.*.i ",
"` ` ` ` ] ` N I I I I I U E T x B n n M M M M M m ^ ^ ^ ^ ^ m _ Q I I I R E ` T U U U I I E _ l c.R R R R ` ( G c.I I I U E U x ",
":X7X7X7X5X>X~.S.A.A.A.A.S.C.v.| Q.D.F.S.A.A.W.~.;X5X7X7X7X7X:X;XW.A.A.A.S.D.Q.D.D.D.S.A.A.C.) e U.v.S.D.D.D.D.F.W.A.A.S.D.D.m.| ",
"3XuXuXeXpXyX4XZ.l.x.l.x.l.d.b.N.}.x.l.x.l.x.-XyXpXyXpXeXwXiX9X3X|.x.x.l.x.k.k.g.g.l.l.l.j.P 7 6 e k 1.g.k.l.l.l.l.l.x.l.x.k.7.m.",
"x.XXXXOX2X3X*X<.#.u.,.w.9.<.5.N.(.i.,.y.8.p.6XiX3X1X@X}.`.&X/.&X`.i.w.8.p.8.w.@.@.w.8.8.C # 5 . X $ 2 o.8.w.9.#.#.8.i.#.w.8.-.m.",
"i.a.i.i.).&X*X<.i.#.O.O.@.<.5.V./.,.O.@.p.8.<XiX2X+Xa.i.i.z.z.@X`.9.O.@.,.w.O.O.w.8.@.t # 5 . . . X $ r +.8.@.O.#.u.@.O.O.,.-.m.",
"#.p.i.i.k.).+X<.@.u.#.w.8.<.5.V./.,.O.O.@.w.6XuX+Xk.i.i.8.p.8..X`.9.O.O.@.8.w.@.@.w.a < $ . . . . . @ # t >.8.@.O.#.u.#.w.8.-.m.",
"p.9.w.p.y.).+X<.O.#.w.8.w.r.5.V./.8.p.#.w.8.<XuXXXp.9.w.w.8.w.OX`.9.8.w.#.w.8.8.@.u 3 $ . . . . . . . @ # i ,.9.O.O.,.p.8.p.1.m.",
"8.9.9.8.w.l.@Xf.p.w.i.u.u.r.4.5.z.u.i.p.i.u.6XuXXXu.w.9.8.w.8.l.l.u.u.i.y.i.u.u.f 3 % X . . . . . . . . @ : g p.p.w.p.i.u.i.1.6.",
"O.8.9.9.9.h.oXQ p i i i i c l k p t t i i J >XuXXXp.8.8.#.,.@.g i i i i i p v t 3 # X . . . . . . . . . X @ 3 p J i i i t p l 2 ",
"O.@.8.8.9.h.%XL.' _ _ _ ' | v.| ] .._ _ _ B.8XuX'.9.8.,.O.O.@.6._ _ _ _ ' ' B @ 5 @ . . . . . . . . . . . @ 5 $ 7 / _ _ _ ] | ' ",
"O.O.@.8.9.h.=X3XXX|.|.|.|.XXXXXXXXXX|.|.|.|.rXuX].8.8.#.O.O.,.Z.}.|.|.|. XA.B $ $ X . . . . . . . . . . . X $ $ 7 ] H.|.XXXXXXXX",
"@.O.O.#.8.h.1X2Xz.i.w.y.y.y.p.w.p.u.w.u.w.u.0XiX.Xw.8.,.O.O.8.w.w.y.p.w.<.p @ X . . . . . . . . . . . . . . . X $ # C ,.u.y.y.p.",
"8.@.O.@.8.h.1X2Xz.w.@.8.8.8.8.@.,.9.@.w.#.p.0XiX.X8.8.O.O.@.8.@.,.9.,.Z i @ @ . . . . . . . . . . . . . . . . . . $ @ t +.8.8.#.",
"w.#.O.@.8.h.1X2Xz.#.@.O.8.8.,.@.8.8.@.8.#.p.0XiX.X9.,.O.O.8.9.#.,.8.Z 2 @ @ . . . . . . . . . . . . . . . . . . . . $ $ t o.,.#.",
"w.#.O.#.8.h.1X2Xz.#.8.#.8.9.8.,.@.8.w.8.w.i.0XiX.X8.,.O.O.8.9.#.O.h 4 $ @ . . . . . . . . . . . . . . . . . . . . . . @ $ t o.8.",
",.@.O.@.,.h.=X`.a.p.i.y.u.i.u.u.p.p.i.p.i.i.0XpX].8.8.O.O.9.8.w.g 1 $ X . . . . . . . . . . . . . . . . . . . . . . . . @ - p >.",
"* * = = 2 l G 9XqXqXqXqXtXrXrXrXrXrXrXqXqXqXU.~ N * * = = l 2 c : X @ $ . . . . . . . . . . . . . . . . . . . . . . . . $ X o 4 ",
"C.L.P.P.Y.Y.E.9XwXwXwXwXwX5X;X;XwXwXwXwXwXwX{.Y.Y.L.P.P.P.Y.m B.j @ $ X . . . . . . . . . . . . . . . . . . . . . . . . @ $ @ n ",
"/./.(._._._._.}.}.}.}.}.}.Z.m.L.@X}.}.}.}.}._./._./._._._._.G Y.N $ $ . . . . . . . . . . . . . . . . . . . . . . . . . X $ $ ~ ",
"i.i.y.p.p.y.w.9.9.i.w.u.y.0.c.V.`.i.w.i.w.i.p.9.9.p.u.p.p.u.F R.B $ $ . . . . . . . . . . . . . . . . . . . . . . . . . X $ $ ~ ",
"i.w.8.8.9.8.@.O.8.w.#.8.8.<.5.V.(.w.@.9.8.w.,.O.#.8.8.,.#.p.F R.N $ $ . . . . . . . . . . . . . . . . . . . . . . . . . X $ $ / ",
"u.,.O.#.8.8.@.O.w.8.@.#.#.<.5.V./.,.O.O.9.8.#.O.,.9.#.#.#.p.F R.N $ $ . . . . . . . . . . . . . . . . . . . . . . . . . X $ $ / ",
"u.8.@.#.,.w.8.O.O.w.8.w.9.2.5.V./.,.#.@.#.w.8.#.@.,.w.8.8.u.F R.N $ $ . . . . . . . . . . . . . . . . . . . . . . . . . X $ $ / ",
"u.9.9.w.9.9.p.,.#.@.p.8.w.r.5.m.).8.u.,.y.0.w.w.@.#.8.w.w.i.F W.N @ $ . . . . . . . . . . . . . . . . . . . . . . . . . X $ $ ~ ",
"0.e.r.w.r.r.e.e.2.<.<.2.0.2.P K r.r.0.2.<.e.0.e.e.e.r.w.r.r.x K 2 . @ $ . . . . . . . . . . . . . . . . . . . . . . . . $ X @ l ",
"q 3 3 3 8 w - ~ j 8 8 8 8 z M 0 0 3 3 8 8 H 9 0 n 3 3 3 3 m 0 8 + $ $ . . . . . . . . . . . . . . . . . . . . . . . . . X $ % : ",
"H.Q.Q.Q.Q.C.! %XQ.H.H.H.Q.!.!.!.!.Q.Q.H.H.!.( | #XQ.Q.Q.Q.!.Q.H.l $ $ . . . . . . . . . . . . . . . . . . . . . . . . . . $ z c.",
"j.l.l.l.l.q.~ 2X).x.j.l.l.l.l.h.j.l.j.x.j.l.U B.@Xx.l.l.l.x.j.j.t $ $ . . . . . . . . . . . . . . . . . . . . . . . . . . $ y -.",
"w.w.8.8.9.1.~ 2Xz.p.,.8.w.w.8.,.8.w.#.w.,.p.U B.+Xu.8.8.w.w.,.#., $ $ . . . . . . . . . . . . . . . . . . . . . . . . . . $ 4 S ",
"8.8.8.#.8.1.~ 1Xz.,.O.@.8.8.,.@.,.9.@.9.@.p.U B.+Xy.@.@.8.9.#.O., $ $ . . . . . . . . . . . . . . . . . . . . . . . . . . $ 4 f ",
"#.8.8.8.w.2.~ <Xk.#.,.#.,.9.8.#.#.8.8.9.8.u.U B.XXw.#.#.8.8.8.@., $ $ . . . . . . . . . . . . . . . . . . . . . . . . . . $ 2 S ",
",.8.w.p.u.e.G .Xk.8.y.9.w.p.w.w.8.8.u.9.u.i.U v.`.u.w.p.p.w.u.9.r @ $ X . . . . . . . . . . . . . . . . . . . . . . . . @ @ y X."
};
