/* XPM */
static char *amqb3_lfgnr[] = {
/* columns rows colors chars-per-pixel */
"64 64 221 2 ",
"   c None",
".  c #0C081D",
"X  c #100C1E",
"o  c #1B151D",
"O  c #20181F",
"+  c #2B241D",
"@  c #3B2B1A",
"#  c #35291D",
"$  c #3D3019",
"%  c #0E0C21",
"&  c #120E21",
"*  c #151224",
"=  c #1A1525",
"-  c #1E1922",
";  c #241C23",
":  c #231E2B",
">  c #2B1C24",
",  c #381927",
"<  c #2A2329",
"1  c #382B28",
"2  c #2C2835",
"3  c #362D32",
"4  c #332F3E",
"5  c #3A3238",
"6  c #4B3617",
"7  c #44331D",
"8  c #4B361A",
"9  c #4C3919",
"0  c #473615",
"q  c #553C1D",
"w  c #593E1D",
"e  c #5C361E",
"r  c #46132A",
"t  c #493724",
"y  c #523A22",
"u  c #453A3B",
"i  c #463A36",
"p  c #542823",
"a  c #782E25",
"s  c #6C3122",
"d  c #643320",
"f  c #6A2B25",
"g  c #5C4321",
"h  c #5A4529",
"j  c #57483B",
"k  c #4F423A",
"l  c #654924",
"z  c #674A26",
"x  c #6D512A",
"c  c #6D5027",
"v  c #72532A",
"b  c #79592F",
"n  c #624C36",
"m  c #695337",
"M  c #7B5D35",
"N  c #785E39",
"B  c #715A36",
"V  c #7B623A",
"C  c #3A3742",
"Z  c #4C4748",
"A  c #524C4E",
"S  c #594A43",
"D  c #5E564E",
"F  c #4A4652",
"G  c #524E55",
"H  c #595556",
"J  c #685648",
"K  c #635E5B",
"L  c #7A6748",
"P  c #706C6F",
"I  c #5F5C67",
"U  c #911730",
"Y  c #AB1E30",
"T  c #B81933",
"R  c #AA1334",
"E  c #95242C",
"W  c #C91437",
"Q  c #E30B3D",
"!  c #964B2A",
"~  c #994E2D",
"^  c #99502E",
"/  c #9B5531",
"(  c #9E5A33",
")  c #86562E",
"_  c #A15C35",
"`  c #836334",
"'  c #8D6A3A",
"]  c #886839",
"[  c #96713D",
"{  c #99743F",
"}  c #996135",
"|  c #A36137",
" . c #A5643C",
".. c #A96E3E",
"X. c #A66B3E",
"o. c #A8703F",
"O. c #997541",
"+. c #9D7944",
"@. c #97784A",
"#. c #826C53",
"$. c #8A7557",
"%. c #937B5B",
"&. c #977C5A",
"*. c #8C7047",
"=. c #AA6B42",
"-. c #A66740",
";. c #A17B44",
":. c #AD7C46",
">. c #AB7446",
",. c #B3794D",
"<. c #B17D48",
"1. c #B37C51",
"2. c #807B70",
"3. c #9E8158",
"4. c #AB844A",
"5. c #A78047",
"6. c #B3854C",
"7. c #B38B4D",
"8. c #B18047",
"9. c #A9895A",
"0. c #B58C52",
"q. c #BA8859",
"w. c #B99155",
"e. c #BC9559",
"r. c #BE985D",
"t. c #B79155",
"y. c #9D8867",
"u. c #8D877B",
"i. c #A58964",
"p. c #A58964",
"a. c #AB916A",
"s. c #BE9B60",
"d. c #B3946A",
"f. c #BD9E6E",
"g. c #B59563",
"h. c #A99774",
"j. c #BFA87B",
"k. c #C2965E",
"l. c #C49B64",
"z. c #C59C69",
"x. c #C69765",
"c. c #C4A36C",
"v. c #CAA56C",
"b. c #CCA86F",
"n. c #C6A268",
"m. c #C4A372",
"M. c #CAA673",
"N. c #CDA973",
"B. c #CBA978",
"V. c #D2AE76",
"C. c #D3AF79",
"Z. c #CEB178",
"A. c #D5B17A",
"S. c #DAB57C",
"D. c #DEB97E",
"F. c #D4B077",
"G. c #89868D",
"H. c #9B958D",
"J. c #A39A87",
"K. c #B8AA87",
"L. c #BAB397",
"P. c #B7B197",
"I. c #B2A888",
"U. c #A8A4A5",
"Y. c #DEBB81",
"T. c #D5B882",
"R. c #C5BC98",
"E. c #C6AE8E",
"W. c #E3BD83",
"Q. c #C3BEA4",
"!. c #C4BEB7",
"~. c #DCC38C",
"^. c #D1C79C",
"/. c #DEC691",
"(. c #E0C48F",
"). c #EAC387",
"_. c #F1C98B",
"`. c #E1C590",
"'. c #E5CD97",
"]. c #E5D197",
"[. c #E5D29C",
"{. c #E9D69F",
"}. c #CAC4A5",
"|. c #D4CDA9",
" X c #DCD2A8",
".X c #DDD5B3",
"XX c #ECDCAB",
"oX c #EBDAA4",
"OX c #E3DBB6",
"+X c #FADCAA",
"@X c #F2E7AE",
"#X c #EBE6BC",
"$X c #F3E4B3",
"%X c #F6EDB5",
"&X c #F5ECBC",
"*X c #F8EEBE",
"=X c #F9F2BA",
"-X c #C1BEC1",
";X c #C5C2C2",
":X c #DFDDDA",
">X c #D7D4CA",
",X c #E1DDD5",
"<X c #ECE7C8",
"1X c #F6EDC2",
"2X c #F5F2C5",
"3X c #FCF5C4",
"4X c #FDF7C9",
"5X c #FFF8CA",
"6X c #FFF9C9",
"7X c #FFFACD",
"8X c #FFFACC",
"9X c #E6E3D6",
"0X c #FFFCD3",
"qX c #FFFADB",
"wX c #F9F3D4",
"eX c #FEFCE4",
"rX c #FFFDEC",
"tX c #F2F0EB",
"yX c #FEFCF3",
"uX c #FEFEFB",
"iX c #ECE9E7",
/* pixels */
"                                                                                                                                ",
"                                                                                                                                ",
"                                                                                                                                ",
"                                                                                                                                ",
"                                                ^ ~ ^ ~ ^ ^ ^ ^ ~ ~ ~ ~ ~ ^                                                     ",
"                                                ( | | | | |  .X.=.=.=.=.=. .                                                    ",
"                                    ^ ^ ~ ~ ^ _ o.:.<.:.:.:.6.k.x.x.x.z.x.q. .~ ! ~ ~ ~                                         ",
"                                  ( | | | _ | ..6.e.e.e.e.e.n.S.~.(.(.`.~.C.q.,.,.,.,.,.>.                                      ",
"                              ~ ( X.:.<.:.:.:.0.l.v.N.b.v.N.T.oX$X&X$X%X$XXX`.~.Y.~.~.Y.z.>.~                                   ",
"                            / ( =.6.e.e.e.e.e.l.b.C.A.A.V.A.`.$X4X8X8X8X8X4X1X*X*X&X&X@X`.x.>. .                                ",
"                          / | >.0.l.v.N.b.v.b.N.V.A.A.A.V.A.`.$X4X8X8X8X8X0XqXeXeXeX0X3X$X'.N.1.(                               ",
"                        ( | >.0.l.N.C.A.A.A.A.A.A.A.A.A.V.A.(.$X4X8X8X8X8X0XeXrXuXuXrXqX4X&X].M.1.-.                            ",
"                      /  .:.w.l.N.V.A.A.A.A.A.A.A.A.A.A.V.A.(.$X4X8X8X8X8X8X0XqXrXuXuXrXqX7X%X{.T.q. .                          ",
"                    ( X.<.w.n.N.A.A.A.A.A.A.A.A.A.A.A.A.V.A.(.$X4X8X8X8X8X8X8X8XqXrXyXuXrXqX8X=XoXA.q.=.                        ",
"                ^ ( X.8.e.n.V.C.A.A.A.A.A.A.A.A.A.A.A.A.V.A.(.$X4X8X4X4X4X4X8X8X8XqXeXyXuXyXeX0X=XoX~.z.=.!                     ",
"              ( _ =.6.r.v.V.A.A.A.A.A.A.A.A.A.A.A.A.A.A.V.A.(.$X4X8X4X4X4X4X8X8X8X0XeXuXuXuXyXeX0X4X@X~.x.>. .                  ",
"            / | >.6.l.b.V.A.A.A.A.A.A.A.A.A.A.A.A.A.A.A.V.A.(.$X4X8X8X8X8X8X8X8X8X0XeXyXuXuXuXyXrXqX3X@X'.B.1.(                 ",
"            / | 8.e.v.V.A.A.A.A.M.d.i.i.i.i.i.d.m.A.A.A.V.A.(.$X4X8X8X8X8X8X8X1X.X}.!.!.-X;X>XiXyXeX8X=X@X~.q._                 ",
"            / | <.e.v.V.A.A.A.A.d.L k u u u u J a.V.S.A.V.A.(.$X4X8X8X8X8X8X8X.Xu.H F G G G P ;XtXeX0X=X@X~.q.(                 ",
"            ^ | :.w.v.V.A.C.m.a.#.u = * * * = 5 L i.m.V.C.A.(.$X4X8X8X8X4X#X|.J.A : & * & * C G.!.9XwX4X%X/.q./                 ",
"            ^ | :.w.v.V.S.N.i.J 5 : * * * * * : 3 S &.m.A.A.(.$X4X8X8X8X2X}.2.Z 2 = * * * * : C I U.9XeX4X[.q.(                 ",
"          ( | >.0.l.v.A.S.M.%.5 * * * * * * * * & 3 #.m.S.S.(.$X4X8X8X8X2XP.A = & * * * * * * X 4 G.:XrX0XXXM.1. .              ",
"        /  .:.0.l.N.V.A.S.M.$.5 * * * * * * * * & 3 #.m.S.S.(.$X4X8X8X8X2XP.A = & * * * * = * X 4 G.:XrX0X*X{.T.q.|             ",
"      ~ _ ..6.r.b.A.A.A.S.M.%.i = - > r r r > - * 3 #.m.S.S.(.$X4X8X8X8X2XL.A - = > , r r , ; o C G.:XrX0X4X%X].x. .!           ",
"      ! ( ..6.r.N.A.A.A.S.M.%.i - + p U R U p # - 3 #.m.S.S./.$X4X8X8X8X2XP.A ; + p U R R f # o C G.:XrX0X3X%X].z. .!           ",
"      ! ( ..6.r.b.A.A.A.S.M.%.i < $ s T Q W a 7 + i #.m.S.A.`.$X4X8X8X8X2XL.D < # d Y Q W a 7 + u G.:XrX0X3X%X].x. .!           ",
"      ! ( ..6.r.b.A.A.A.S.M.3.n 7 7 s T Q W a 6 7 h @.m.A.A.`.$X4X8X8X8X2XR.L t 7 d Y Q W a 9 $ j J.9XrX0X3X%X].x. .!           ",
"      ! ( ..6.r.b.A.A.A.S.N.9.x 9 6 d E T Y s 9 6 z @.c.A.A.(.$X4X8X8X8X2XR.L 9 0 e E T Y s 9 0 m J.9XeX0X3X%X].x. .!           ",
"      ! ( ..6.r.b.A.A.A.S.N.9.x 9 6 q s a s e 9 9 z @.c.A.A.(.$X4X8X8X8X2XR.L q 6 q d a s e 9 6 n h.#X0X8X3X%X].x. .!           ",
"      ! ( ..6.r.b.A.A.A.A.N.g.*.B g 9 9 9 9 9 g x *.9.N.A.A.(.$X4X8X8X8X2X|.y.L h q 6 6 9 9 g m $.K.#X8X8X3X%X].x. .!           ",
"      ! ( ..6.r.b.A.A.A.A.A.A.N.9.V q 6 6 6 q B 9.M.A.A.V.A.(.$X8X8X8X8X4X1X.XK.#.g 6 6 6 9 m a.^.#X3X8X8X3X%X].x. .!           ",
"      ! ( ..6.r.N.A.A.A.C.A.W.).F.9.] V V N V @.N.).W.A.V.A.`.$X8X8X8X8X8X0XwXOXI.$.L L L L y.^.2X8X8X8X8X4X=X].z. .!           ",
"      ~ _ ..6.r.b.A.A.A.A.A.S.D.S.C.N.N.N.N.N.V.S.D.S.A.C.A.`.$X4X8X8X8X8X8X0X2XOX|.^.^.^.^. X&X4X8X8X8X8X4X%X].x. .!           ",
"        /  .:.0.l.N.V.A.A.A.C.A.S.)._._._._._.).D.A.A.C.c.a.h.K.R.Q.}.OX2X8X8X8X8X8X8X8X8X8X8X8X8X8X8X1X$XoX'.A.q. .            ",
"          ( | >.0.l.b.C.A.A.A.C.A.S.Y.Y.Y.Y.Y.D.A.A.S.M.&.J u Z A A K J.OX8X8X8X8X8X8X8X8X8X8X8X8X8X3XXXT.l.q.,.=.              ",
"            ) } :.w.l.b.V.A.A.A.A.A.A.A.A.A.A.A.A.N.f.y.J 2 & & & X < K I..X1X4X8X8X8X8X8X8X8X8X4X*XXXT.s.:.} )                 ",
"            z ) ;.0.w.r.n.V.A.A.A.A.C.C.C.C.C.A.A.f.#.k 2 = & & & & = 2 A u.|.4X8X8X8X8X8X8X8X8X*X[.Z.s.0.;.) z                 ",
"            g b +.7.7.0.r.n.b.b.N.V.A.A.A.A.A.A.S.d.J < < u A G F 2 * . = H R.2X8X8X8X8X2X$XXXXX[.Z.e.7.7.+.b g                 ",
"            g b ;.7.7.7.t.w.e.e.l.v.C.A.A.A.A.A.S.d.J 3 S y.E.!.U.I : . = H R.2X8X8X8X3XXXT.v.c.n.r.0.7.7.;.b g                 ",
"            g v ' ;.4.7.7.7.7.7.w.l.v.V.C.A.A.A.A.f.#.J $.T.+XwX,XH.I F H u.|.4X8X4X*XXX~.l.7.6.7.7.7.4.;.' v g                 ",
"              l c ` +.7.7.7.7.7.0.w.r.v.V.A.A.A.A.C.M.m.B.Y.[.1XwX,X;X-X;X>X<X8X8X1X[.Z.s.0.7.7.7.7.7.+.` c l                   ",
"                q z ` +.4.7.7.7.7.7.t.l.V.A.A.A.C.S.W.).W.S.(.$X7XqXrXyXrXeX0X8X8X&X~.r.6.7.7.7.7.4.+.` z q                     ",
"                    z b [ 4.7.7.7.7.w.l.V.A.A.A.A.A.S.D.S.S.(.$X4X0XqXqXqX0X8X8X8X&X~.r.6.7.7.0.4.[ b z                         ",
"                      l M [ 5.7.7.7.w.l.V.A.A.A.A.A.A.C.V.A.`.$X4X8X8X8X8X8X8X8X8X*X~.s.6.7.7.5.[ M l                           ",
"                        l v ' 5.7.7.w.l.V.A.A.A.A.A.A.C.V.A.`.$X4X8X8X8X8X8X8X8X8X*X/.s.7.7.5.' v l                             ",
"                          g v ' ;.4.t.n.V.S.A.A.A.A.A.C.C.A.`.$X8X8X8X8X8X8X8X8X0X*X/.s.5.;.' v g                               ",
"                            l c ` +.0.n.V.A.A.A.A.A.A.A.V.A.`.$X8X8X8X8X8X8X8X8X8X*X/.r.{ ` c l                                 ",
"                              w v [ 4.9.i.p.i.d.m.C.A.V.f.a.h.K.}.#X3X8X4X#X|.Q.Q.R.j.0.[ c w                                   ",
"                              w v { +.L j i u J a.V.S.M.&.J u Z P P.1X0X2X}.2.A A D #.;.{ v w                                   ",
"                              w v O.@.n < % * u &.N.D.m.#.3 % % C J.#X0X2XP.A * . : n @.O.v w                                   ",
"                              w v O.@.n : % * u &.N.D.m.#.3 % X C J.#X0X2XP.A * . ; n @.O.v w                                   ",
"                              w v O.+.m 1 - ; j 3.V.D.m.$.i O O Z J.#X0X2XL.D < o 1 m +.O.v w                                   ",
"                              w v O.+.N y @ 7 m 9.V.D.M.&.h @ @ m I.#X0X2XR.L t @ y N +.O.v w                                   ",
"                              w v O.;.` g 9 q B 9.V.S.M.&.x 9 6 B K.#X0X2XR.L q 6 g ` ;.O.v w                                   ",
"                              w v O.;.` g 9 q B 9.V.D.M.3.x 9 6 B K.#X0X2XR.L q 6 g ` ;.O.v w                                   ",
"                              w v O.;.N y @ 7 n 9.v.C.z.@.h @ @ n h. X$XXXK.J t @ y N ;.O.v w                                   ",
"                              w v O.+.m 1 - ; i *.e.k.9.L i ; ; i #.f.Z.c.&.k ; - 1 m +.O.v w                                   ",
"                              w c ' ] n 1 ; > t N O.;.O.m 1 ; ; 1 m O.;.O.N t > ; 1 n ] ' c w                                   ",
"                                  c c g t 7 7 y l c v c l y 7 7 y l c v c l y 7 7 t g c c                                       ",
"                                    q w w w w w w q q q w w w w w w q q q w w w w w w q                                         ",
"                                                                                                                                ",
"                                                                                                                                ",
"                                                                                                                                ",
"                                                                                                                                "
};
