/* XPM */
static char *a0xrj_qsfzw[] = {
/* columns rows colors chars-per-pixel */
"64 64 205 2 ",
"   c None",
".  c #0C1E1A",
"X  c #1C2123",
"o  c #1B2325",
"O  c #27252B",
"+  c #252C31",
"@  c #332832",
"#  c #3C2B37",
"$  c #2A353B",
"%  c #32383E",
"&  c #31363B",
"*  c #462D3D",
"=  c #4A303F",
"-  c #2D3A41",
";  c #343C41",
":  c #393F45",
">  c #4E3142",
",  c #553346",
"<  c #593347",
"1  c #563449",
"2  c #5A3549",
"3  c #492F41",
"4  c #623649",
"5  c #673853",
"6  c #753C5D",
"7  c #793E60",
"8  c #364146",
"9  c #3B4347",
"0  c #3D454A",
"q  c #39464C",
"w  c #3B4A52",
"e  c #3C4C55",
"r  c #3E5059",
"t  c #3E5866",
"y  c #3D5866",
"u  c #41464C",
"i  c #42494D",
"p  c #434E54",
"a  c #4C4A54",
"s  c #43535B",
"d  c #4B565D",
"f  c #4B555B",
"g  c #51595E",
"h  c #5A4858",
"j  c #684C5F",
"k  c #654B5E",
"l  c #465963",
"z  c #4B5B64",
"x  c #465E6A",
"c  c #515D63",
"v  c #694C60",
"b  c #674C60",
"n  c #6E5368",
"m  c #4B626E",
"M  c #59666D",
"N  c #556269",
"B  c #4D6572",
"V  c #4B6B7C",
"C  c #5F6771",
"Z  c #536D7A",
"A  c #566A74",
"S  c #5A717E",
"D  c #626A73",
"F  c #636B75",
"G  c #69747D",
"H  c #66747C",
"J  c #81415E",
"K  c #934572",
"L  c #8E476F",
"P  c #A74B7E",
"I  c #AD517B",
"U  c #4A6E81",
"Y  c #4D7184",
"T  c #527486",
"R  c #587585",
"E  c #537689",
"W  c #55798C",
"Q  c #5A7B8D",
"!  c #5C7E91",
"~  c #577C90",
"^  c #6B7B84",
"/  c #677A86",
"(  c #727E87",
")  c #747E88",
"_  c #797A88",
"`  c #607F91",
"'  c #8F5F81",
"]  c #AA4B82",
"[  c #B44E86",
"{  c #B44E89",
"}  c #B84F8B",
"|  c #BA5684",
" . c #B55088",
".. c #BB518C",
"X. c #81788B",
"o. c #93708D",
"O. c #BA6C9C",
"+. c #B56A9A",
"@. c #AD6793",
"#. c #C35392",
"$. c #CB5697",
"%. c #D5599E",
"&. c #D6589D",
"*. c #C2578B",
"=. c #DC5BA3",
"-. c #E55DA8",
";. c #CF72AB",
":. c #DD75B4",
">. c #CF72AA",
",. c #EC60AE",
"<. c #5E8295",
"1. c #5F8498",
"2. c #75838A",
"3. c #78818A",
"4. c #638495",
"5. c #688696",
"6. c #638699",
"7. c #6D8A9B",
"8. c #698899",
"9. c #7E8795",
"0. c #728E9D",
"q. c #7A8A95",
"w. c #74909F",
"e. c #7A929F",
"r. c #7592A1",
"t. c #7B96A3",
"y. c #7E99A7",
"u. c #7F9AA9",
"i. c #6D8EA0",
"p. c #818796",
"a. c #838897",
"s. c #858D9A",
"d. c #84929A",
"f. c #89949D",
"g. c #97879E",
"h. c #809AA7",
"j. c #8C9AA2",
"k. c #829CAA",
"l. c #8095A2",
"z. c #939AA6",
"x. c #AF98B4",
"c. c #85A0AE",
"v. c #8AA2AF",
"b. c #95A3AB",
"n. c #83A1B0",
"m. c #8CA5B4",
"M. c #8DA9B7",
"N. c #9DABB3",
"B. c #92ABB8",
"V. c #98A7B5",
"C. c #9DB0BA",
"Z. c #A3AABA",
"A. c #A5ADB9",
"S. c #A3B4BD",
"D. c #A8B5BC",
"F. c #BF9FC0",
"G. c #98B3C1",
"H. c #ADAEC1",
"J. c #B1AFC3",
"K. c #BFA0C0",
"L. c #A2B7C2",
"P. c #A9B9C3",
"I. c #A7BCC7",
"U. c #B1B0C3",
"Y. c #C1A1C1",
"T. c #CEA4C9",
"R. c #D5A6CE",
"E. c #AFC1CA",
"W. c #B4C3CC",
"Q. c #ADC5D3",
"!. c #BCCBD3",
"~. c #B6CCD8",
"^. c #BAD1DD",
"/. c #BEDEF1",
"(. c #C3D5DD",
"). c #C6D9E3",
"_. c #CBDCE4",
"`. c #C6D9E3",
"'. c #CBE0EC",
"]. c #D2E0E7",
"[. c #D3E4EB",
"{. c #D9E5EC",
"}. c #C3E5F8",
"|. c #C8E7F8",
" X c #C7E9FC",
".X c #CCEAFA",
"XX c #C6E3F2",
"oX c #D4E6F0",
"OX c #D6ECF6",
"+X c #DCEDF4",
"@X c #D3EDFC",
"#X c #D9EFF9",
"$X c #DAF2FE",
"%X c #D9F2FC",
"&X c #E4EEF4",
"*X c #E3F1F5",
"=X c #E4F4FC",
"-X c #EAF6FB",
";X c #ECF9FF",
":X c #E6F9FF",
">X c #F3FBFE",
",X c #FAFDFF",
"<X c #FDFEFF",
"1X c #FCFEFF",
"2X c #F1F7FA",
/* pixels */
"                                                      w s l B S ^ 2.( H N                                                       ",
"                                          8 8 8 ; 8 w s m R 5.k.L.I.P.j.H f 8 ; 8 8 8                                           ",
"                                        w r s s s s l m Z Q r.G.^._._.E.j.2.F C F C M c                                         ",
"                                    8 w l B Z R R R R R T Q 7.M.~.'.OX'.^.E.P.P.P.N.j.G z 9                                     ",
"                                  q e l B R Q 4.4.4.<.Q E W 6.n.Q.'.%X=X*X+X+X*X+X_.W.j.^ N p                                   ",
"                              0 s l m Z R W ! ! <.! ! W Y E 4.k.Q.'.=X;X>X,X,X,X,X-X{.!.N.d.^ M p                               ",
"                          8 q e l Z R Q Q W E E E E Y Y U T 4.n.Q.'.=X>X,X,X1X1X1X,X2X*X].!.N.2.M p 8                           ",
"                        w r l m Z R Q ! W E Y Y Y Y U U U Y 4.n.Q.'.=X;X;X;X>X>X1X1X1X,X>X+X(.N.d.^ M f                         ",
"                    ; w s m Z R W W W E E Y Y Y Y Y U U U Y 4.n.Q.'.%X$X$X#X%X-X>X,X1X1X1X2X&X].!.S.d.F s ;                     ",
"                  p f z A R Q ! ! W T Y Y Y Y Y Y Y Y U U Y 4.n.Q.'.#X$X.X X.X#X=X>X,X1X1X1X,X>X*X_.P.d.H N f                   ",
"              0 f M H / 5.4.Q W E Y Y Y Y Y Y Y Y Y Y U U Y 4.n.Q.'.#X$X.X X}..X@X%X=X>X,X1X1X1X>X*X].!.S.j.^ c 0               ",
"            q s N / 7.t.r.8.<.W T Y Y Y Y Y Y Y Y Y Y U U Y 4.n.Q.'.#X$X.X}.}.}.}..X#X=X>X,X1X1X1X,X2X*X].W.b.^ N p             ",
"        q r l m Z ` 8.0.r.7.5.4.Q E Y Y Y Y Y Y Y Y Y U U Y 4.n.Q.'.#X$X.X X}.}.}.}. X#X%X=X>X,X1X1X1X,X-X{.!.N.d.^ M s         ",
"    ; q s x Z R Q ! Q ! 4.8.7.8.5.Q E Y Y Y Y Y Y Y Y U U Y 4.n.Q.'.#X$X.X X}.}.}.}.}.}..X#X%X;X>X1X1X1X,X2X&X].!.N.q.M p ;     ",
"  w r s m Z R Q ! W E T W 4.8.8.8.5.! Q E T Y Y Y Y Y U U Y 4.n.Q.'.#X$X.X X}.}.}.}.}.}.}.|.@X%X-X>X,X1X1X1X,X>X+X(.S.d.G M c   ",
"w s B Z R W W W E Y Y Y T E Q ! 5.8.8.8.4.W T Y Y Y Y U U T 4.n.Q.'.#X$X.X X}.}.}.}.}.}.}.}.|..X#X%X-X>X,X1X1X1X2X&X].!.S.f.H g ",
"e l S Q <.<.W E Y Y Y Y Y Y Y E Q 5.8.7.8.4.Q E T Y Y U U Y 4.n.Q.'.#X$X.X X}.}.}.}.}.}.}.}.}.}.}..X#X=X>X,X1X1X1X,X>X+X(.S.2.c ",
"e x R <.6.<.W Y Y Y Y Y Y Y Y Y E Q 4.5.5.8.5.4.Q E Y U V Y 4.n.Q.'.#X$X.X X}.}.}.}.}.}.}.}.}.}.}.}..X#X%X=X>X,X1X1X,X-X_.P.2.c ",
"e z R Q 4.<.W Y Y Y Y Y Y Y Y Y Y Y E Q 4.8.7.8.5.Q T Y U T 4.n.Q.'.#X$X.X X}.}.}.}.}.}.}.}.}.}.}.}.}.}..X#X=X;X,X,X>X=X_.S.2.c ",
"e z S ! <.<.W Y Y Y Y Y Y Y Y Y Y Y Y T Q 4.5.8.8.5.! W T E 4.c.Q.'.#X$X.X X}.}.}.}.}.}.}.}.}.}.}.}.}.}.}. X#X%X=X;X;X%X).S.2.c ",
"e z S Q <.<.W T Y Y Y Y Y Y Y Y Y Y Y Y T E Q <.5.8.8.5.Q Q 6.n.Q.'.#X$X.X X}.}.}.}.}.}.}.}.}.}.}.}.}.}.}.}.|..X@X%X$X#X).S.2.c ",
"q l Z Q <.<.W T Y Y Y Y Y Y Y Y Y Y Y Y Y Y T W 4.8.8.8.4.4.0.M.~.'.%X$X.X X}.}.}.}.}.}.}.}.}.}.}.}.}.}.}.}.}.}. X.X$X#X).S.2.c ",
"; r Z W <.<.W T Y Y Y Y Y Y Y Y Y Y Y Y Y Y Y T E Q ! 4.5.7.k.G.^.oX%X$X@X X}.}.}.}.}.}.}.}.}.}.}.}.}.}.}.}.}.}. X.X$X#X).S.2.c ",
"$ w B W <.<.W T Y Y Y Y Y Y Y Y Y Y Y Y Y Y Y Y Y Y E Q 4.0.k.L.(.oX$X$X@X X}.}.}.}.}.}.}.}.}.}.}.}.}.}.}.}.}.}. X.X$X#X).S.2.c ",
"$ w B W <.<.W T Y Y Y Y Y Y Y Y Y Y Y Y Y Y Y Y Y Y Y T W 5.t.B.^.[.%X$X@X}.}.}.}.}.}.}.}.}.}.}.}.}.}.}.}.}.}.}. X.X$X#X).S.2.c ",
"$ w B W <.<.W T Y Y Y Y Y Y Y Y Y Y Y Y Y Y Y Y Y Y Y Y Y W 8.m.~.'.%X$X@X X}.}.}.}.}.}.}.}.}.}.}.}.}.}.}.}.}.}. X.X$X#X).S.2.c ",
"$ w B W <.<.W T Y Y Y Y Y Y Y Y Y Y Y Y Y Y Y Y Y Y Y U U Y 4.n.Q.'.%X$X@X.X|.}.}.}.}.}.}.}.}.}.}.}.}.}.}.}.}.}. X.X$X#X).S.2.c ",
"$ w B W <.<.W T Y Y Y Y Y Y Y Y Y Y Y Y Y Y Y Y Y Y Y U U Y 4.n.Q.'.%X$X$X@X.X|.}.}.}.}.}.}.}.}.}.}.}.}.}.}.}.}. X.X$X#X).S.2.c ",
"$ e Z ` 8.6.Q E Y Y Y Y Y Y Y Y Y Y Y Y Y Y Y Y Y Y Y U U Y 4.n.Q.'.%X$X$X#X.X.X|.}.}.}.}.}.}.}.}.}.}.}.}.}.}.}. X.X$X#X).S.2.c ",
"$ s S 7.r.7.! E Y U Y Y Y Y Y Y Y Y Y Y Y Y Y Y Y Y Y U U Y 4.n.Q.'.%X$X@X.X.X.X.X.X X}.}.}.}.}.}.}.}.}.}.}.}.}. X.X$X#X).S.2.c ",
"% f ^ e.k.t.5.Q T Y Y Y Y Y Y Y Y Y Y Y Y Y Y Y Y Y Y U U Y 4.n.Q.'.%X$X.X X|. X.X.X.X X}.}.}.}.}.}.}.}.}.}.}.}. X.X$X#X).S.2.c ",
"% f ^ t.n.k.r.5.Q W T Y Y Y Y Y Y Y Y Y Y Y Y Y Y Y Y U U Y 4.n.Q.'.#X$X.X X}.|. X.X.X.X X X|.}.}.}.}.}.}.}.}.}. X.X$X#X).S.2.c ",
"% f ^ t.m.m.k.t.8.4.W T Y Y Y Y Y Y Y Y Y Y Y Y Y Y Y U U Y 4.n.Q.'.#X$X.X X}.}.}.}. X.X.X.X.X|.}.}.}.}.}.}.}.}. X.X$X#X).S.2.c ",
"% f ^ t.m.M.v.k.r.8.4.Q W T Y Y Y Y Y Y Y Y Y Y Y Y Y U U Y 4.n.Q.'.#X$X.X X}.}.}.}.}. X.X.X.X X X|.}.}.}.}.}.}. X.X$X#X).S.2.c ",
"% f ^ l.m.M.c.k.y.t.w.8.5.Q E Y Y Y Y Y Y Y Y Y Y Y Y U U Y 4.n.Q.'.#X$X.X X}.}.}.}.}.}.|. X.X.X.X.X X}.}.}.}.}. X.X$X#X).S.2.c ",
"% f ^ l.m.M.c.k.y.y.y.t.0.5.Q W T Y Y Y Y Y Y Y Y Y Y U U Y 4.n.Q.'.#X$X.X X}.}.}.}.}.}.}.}.|..X.X.X.X X|.}.}.}. X.X$X#X).S.2.c ",
"% f ^ l.m.M.c.k.h.h.h.y.t.w.8.5.! E T Y Y Y Y Y Y Y Y U U Y 4.n.Q.'.#X$X.X X}.}.}.}.}.}.}.}.}.|. X.X.X.X.X X}.}. X.X$X#X).S.2.c ",
"% s / t.m.m.c.k.y.y.y.y.y.y.t.w.8.` W T Y Y Y Y Y Y Y U U Y 4.n.Q.'.#X$X.X X}.}.}.}.}.}.}.}.}.}.}.|. X.X.X.X|.}. X.X$X#X).S.2.c ",
"$ p S 0.u.k.k.k.k.y.y.h.h.k.h.y.r.8.4.Q W T Y Y Y Y Y U U Y 4.n.Q.'.#X$X.X X}.}.}.}.}.}.}.}.}.}.}.}.|. X.X.X X X.X@X$X#X`.S.^ f ",
"$ w Z 4.r.t.t.y.y.y.h.y.y.h.y.y.y.t.w.8.4.Q T Y Y Y U U U T 4.n.Q.'.#X$X.X X}.}.}.}.}.}.}.}.}.}.}.}.}.}.|.|. X.X@X$X$X+X(.N.H i ",
"$ w B W 8.i.7.r.r.t.y.y.h.y.y.h.h.h.y.t.7.5.Q W T Y Y U U Y 4.n.Q.'.#X$X.X X}.}.}.}.}.}.}.}.}.}.}.}.}.}.}.}.|..X@X$X=X+X(.N.F 0 ",
"$ w B W 4.6.4.4.5.7.t.y.k.h.h.y.y.h.y.y.t.w.8.5.Q E Y U V Y 4.n.Q.'.#X$X.X X}.}.}.}.}.}.}.}.}.}.}.}.}.}.}.}.}.}..X@X=X+X(.N.F 0 ",
"$ w B W <.<.W W Q 4.8.r.t.y.y.y.h.y.y.y.y.y.t.0.5.Q E Y U T 4.n.Q.'.#X$X.X X}.}.}.}.}.}.}.}.}.}.}.}.}.}.}.}.}.}. X@X$X+X(.A.F 0 ",
"$ w B W <.<.W E T W ! 5.7.r.y.y.k.h.h.h.h.k.y.t.w.8.4.Q T E 4.k.Q.'.#X$X.X X}.}.}.}.}.}.}.}.}.}.}.}.}.}.}.}.}.}. X@X$X+X(.N.F 0 ",
"$ w B W <.<.W T Y Y T W 4.8.w.t.y.y.y.y.y.h.y.y.y.t.0.8.Q Q 8.n.Q.'.#X$X.X X}.}.}.}.}.}.}.}.}.}.}.}.}.}.}.}.}.}..X.X$X#X(.N.F 0 ",
"$ w B W <.<.W T Y U Y Y E ! 5.7.r.t.y.h.h.y.y.h.k.h.y.w.5.5.r.M.~.'.%X$X.X X}.}.}.}.}.}.}.}.}.}.}.}.}.}.}.}.}.}. X.X$XOX(.N.H 0 ",
"$ w B W <.<.W T Y Y Y Y T E W ! 5.0.t.y.h.h.y.y.h.h.y.t.w.r.k.G.^.oX$X$X.X}.}.}.}.}.}.}.}.}.}.}.}.}.}.}.}.}.}.}. X.X$XOX(.N.F 0 ",
"$ w B W <.<.W T Y Y Y Y Y Y Y E Q 5.7.r.t.y.y.h.h.y.y.y.y.k.M.I.(.oX$X$X.X}.}.}.}.}.}.}.}.}.}.}.}.}.}.}.}.}.}.}. X.X$XOX(.N.F 0 ",
"$ w B W <.<.W T Y Y Y Y Y Y Y Y E Q ! 5.7.r.y.h.k.h.y.y.y.k.M.I.`.oX$X$X.X}.}.}.}.}.}.}.}.}.}.}.}.}.}.}.}.}.}.}. X.X$XOX(.N.F 0 ",
"$ w B W 4.<.W E Y Y Y Y Y Y Y Y Y Y E Q 4.7.r.y.y.y.y.y.y.k.M.I.`.+X=X$X@X.X}.}.}.}.}.}.}.}.}.}.}.}.}.}.}.}.}.}..X@X$X#X(.N.F 0 ",
"$ w B W 6.1.~ E Y Y Y Y Y Y Y Y Y Y Y E Q 4.8.0.r.y.u.k.u.k.B.I._.+X:X:X$X@X.X.X.X X X X X X X X X X X X X X X X.X@X$X%X).N.H 0 ",
"$ q m R ! ! E Y U U U U U U U U U U U U Y T E Q 5.0.e.t.t.y.v.L.^.].+X+XOXoXXXXXXX/././././././././././././././.XX|.OX[.!.b.D 9 ",
"+ - r x B B x x t t t t t t t t y y t y y y t x B Z S H H / ( q.z.Z.D.D.S.C.C.B.B.B.B.B.B.B.B.B.B.B.B.B.B.B.B.B.B.C.S.C.z.2.f & ",
"o + $ - - - - - $ $ $ $ $ $ $ $ $ $ $ $ $ $ $ - ; ; 8 9 8 9 0 p f g c c c c z g d f f f f f d d f f z f z f f z z z c g f 0 & O ",
"% % ; ; ; ; ; ; ; ; ; ; ; ; ; ; ; ; ; ; ; ; ; ; ; ; ; ; ; ; : 9 9 0 u u u 0 0 0 0 0 0 0 0 0 0 0 0 0 0 0 0 0 0 u u u u u u u i i ",
"D D D D D D D D D D D D D D D D D D D D D D D D D C C C C C F H G ( ( ) ) ) ) ) ) ) ) ) ) ) ( ( ( ( ( ( ( ) ) ) 3.) ) 3.3.p.f.j.",
"9.9.9.9.9.p.p.p.p.p.p.p.p.p.p.p.p.p.p.p.p.p.p.p.p.p.p.p.p.a.s.z.b.Z.A.H.H.H.H.H.H.H.H.H.H.H.H.H.J.J.U.J.J.H.A.A.Z.Z.Z.Z.S.P.W.!.",
"G G G G ^ _ _ X.X.X.X.X.X.X.X.X.X.X.X.X.X.X.X.X.X.X.X.X._ X.X.g.x.x.x.Y.Y.Y.Y.Y.Y.Y.Y.K.K.Y.Y.T.T.R.R.R.T.Y.x.z.f.s.s.s.f.j.b.b.",
": : : : u a h k b v j v j j j j j j j j j j j j j j j j k v n L ' @.O.O.O.O.O.O.O.O.O.O.O.O.>.>.:.:.:.:.>.+.' n a i 0 i i p p f ",
"X X X O O @ * = > , < 2 2 2 2 2 2 2 2 2 2 2 2 2 2 2 2 2 < 2 5 7 K P [  . . . .}  . . . ...#.$.%.=.&.&.#.] K 6 3 O X X X X X X X ",
"          O O @ # * , , < 2 < < < < < < < < < < < < < , , 2 5 7 K P [ } } [ [ [ [ } ..#.$.&.&.=.&.$.] L 5 1 *                   ",
"            X O @ # > < 2 2 2 2 2 2 2 2 2 2 2 2 2 2 2 1 < 2 5 7 K ] [ } } } { [ }  .#.$.%.-.-.-.=...K 5 # O X                   ",
"            X O @ # > 1 2 2 2 2 2 2 1 1 1 1 1 1 1 1 1 1 , 2 5 7 K ] { } } { { { { } #.&.=.-.,.,.=...L 1 @ X .                   ",
"            X O O # = , 2 2 < 2 2 2 4 4 4 4 4 4 4 4 4 4 2 4 5 J K I | | | | | | | | *.$.%.%.=.=.$. .L 1 @ X                     "
};
